<?xml version="1.0" encoding="UTF-8"?>
<svg version="1.1" xmlns="http://www.w3.org/2000/svg" width="1536" height="1024">
<path d="M0 0 C506.88 0 1013.76 0 1536 0 C1536 337.92 1536 675.84 1536 1024 C1029.12 1024 522.24 1024 0 1024 C0 686.08 0 348.16 0 0 Z " fill="#1A2740" transform="translate(0,0)"/>
<path d="M0 0 C1.47545288 0.8185144 1.47545288 0.8185144 2.98071289 1.65356445 C4.09808838 2.26345215 5.21546387 2.87333984 6.36669922 3.50170898 C7.56239717 4.17316965 8.75795026 4.84488833 9.95336914 5.5168457 C11.20348607 6.20559741 12.45439375 6.89291563 13.70605469 7.57885742 C16.25621759 8.9785815 18.80212303 10.38561649 21.3449707 11.79858398 C25.66997712 14.19777206 30.02729626 16.53556045 34.38549805 18.8737793 C43.18320768 23.59888069 51.90338158 28.44543241 60.57836914 33.3918457 C69.07142311 38.23447172 77.6698267 42.81776329 86.36035156 47.29467773 C96.21980394 52.39960614 105.85847332 57.87792683 115.49145508 63.39526367 C118.75068824 65.24678549 122.03374078 67.05352462 125.32299805 68.85107422 C127.01586914 69.8293457 127.01586914 69.8293457 128.01586914 70.8293457 C128.12517818 72.53862561 128.16440811 74.25242008 128.17649841 75.96514893 C128.18654404 77.07838028 128.19658966 78.19161163 128.2069397 79.33857727 C128.21277069 80.57077499 128.21860168 81.80297272 128.22460938 83.07250977 C128.23439316 84.36184921 128.24417694 85.65118866 128.2542572 86.979599 C128.28569847 91.26802545 128.30591729 95.55647164 128.32446289 99.8449707 C128.32776021 100.57404601 128.33105753 101.30312132 128.33445477 102.05428982 C128.36524148 108.92802749 128.39195521 115.80176943 128.40887356 122.67555618 C128.430781 131.4740817 128.47274243 140.27199692 128.54231113 149.07027841 C128.58954017 155.25291243 128.61380571 161.43538175 128.62107044 167.61819053 C128.62602924 171.31248904 128.64112888 175.00610051 128.68081474 178.70020294 C128.72452438 182.82337902 128.72078676 186.94520337 128.71289062 191.06860352 C128.73289124 192.29270432 128.75289185 193.51680511 128.77349854 194.77799988 C128.70393144 202.84854196 128.70393144 202.84854196 126.72482681 205.66967201 C125.13493347 207.0295105 125.13493347 207.0295105 122.01586914 208.8293457 C121.15719238 209.34352051 120.29851562 209.85769531 119.41381836 210.38745117 C118.55804199 210.81944824 117.70226562 211.25144531 116.82055664 211.6965332 C115.86318604 212.18621582 114.90581543 212.67589844 113.91943359 213.18041992 C112.42029419 213.93476318 112.42029419 213.93476318 110.89086914 214.7043457 C103.66012339 218.40306116 96.56111169 222.17436121 89.59008789 226.34106445 C86.98458126 227.84743475 84.34381375 229.1939659 81.64086914 230.5168457 C72.9422638 234.78707014 64.49913321 239.53604667 56.00415039 244.1940918 C51.09902992 246.87828272 46.18292821 249.54210422 41.26586914 252.2043457 C40.28803467 252.73406982 39.3102002 253.26379395 38.30273438 253.80957031 C32.83815724 256.76772098 27.36876863 259.71678439 21.89477539 262.6574707 C21.30278351 262.97563751 20.71079163 263.29380432 20.1008606 263.62161255 C17.22799642 265.16558303 14.35447106 266.70829371 11.47973633 268.2487793 C9.92947754 269.08143311 9.92947754 269.08143311 8.34790039 269.9309082 C7.43758057 270.41897949 6.52726074 270.90705078 5.58935547 271.40991211 C3.83869032 272.37550998 2.11932357 273.39962053 0.43237305 274.47265625 C-3.49507726 276.67763113 -6.60096137 276.68877479 -10.98413086 275.8293457 C-15.54325375 273.96886274 -19.77613026 271.57666279 -24.04663086 269.1418457 C-25.28810143 268.45262737 -26.53063327 267.76531752 -27.77416992 267.07983398 C-30.30448602 265.68216821 -32.82925212 264.27521488 -35.34985352 262.86010742 C-40.6104426 259.91179653 -45.92465275 257.06332942 -51.23413086 254.2043457 C-53.19548647 253.1413147 -55.15642514 252.07751404 -57.11694336 251.01293945 C-61.08953075 248.85675228 -65.06348651 246.70312515 -69.03881836 244.55200195 C-105.51912337 224.81161522 -105.51912337 224.81161522 -120.89794922 216.20898438 C-125.85636511 213.43778777 -130.85737062 210.76255985 -135.91772461 208.1809082 C-138.3216828 206.60856504 -139.47154946 205.2727982 -140.98413086 202.8293457 C-141.36724091 200.3052454 -141.36724091 200.3052454 -141.37854004 197.40870667 C-141.38988983 196.30817963 -141.40123962 195.20765259 -141.41293335 194.07377625 C-141.41000275 192.87106583 -141.40707214 191.66835541 -141.40405273 190.42919922 C-141.41252228 189.15892883 -141.42099182 187.88865845 -141.42971802 186.57989502 C-141.45193177 183.09844372 -141.45486482 179.61722911 -141.4529705 176.13571668 C-141.4528508 173.22813184 -141.46141485 170.32059715 -141.46974802 167.41302627 C-141.48898143 160.55298608 -141.49186611 153.69306758 -141.48510742 146.83300781 C-141.47846566 139.75847916 -141.50133599 132.68447176 -141.53842115 125.61004883 C-141.56911835 119.53347664 -141.58047822 113.45707214 -141.57658434 107.38042396 C-141.57451689 103.75225653 -141.57999467 100.12449477 -141.60447693 96.49640083 C-141.63087878 92.45021174 -141.61701634 88.40512336 -141.59936523 84.35888672 C-141.61262848 83.15820053 -141.62589172 81.95751434 -141.63955688 80.72044373 C-141.55696964 72.59090583 -141.55696964 72.59090583 -138.57981873 68.63293457 C-136.30717246 67.05380806 -134.14682997 65.59749778 -131.67553711 64.35668945 C-130.85770752 63.93846924 -130.03987793 63.52024902 -129.19726562 63.08935547 C-128.32255615 62.65292725 -127.44784668 62.21649902 -126.54663086 61.7668457 C-124.64991558 60.79721479 -122.75411 59.82580273 -120.85913086 58.8527832 C-119.88588867 58.35488281 -118.91264648 57.85698242 -117.90991211 57.34399414 C-113.2496159 54.93140421 -108.6473461 52.4157374 -104.04663086 49.8918457 C-103.13518311 49.39281738 -102.22373535 48.89378906 -101.28466797 48.37963867 C-99.43661751 47.3673515 -97.58887945 46.35449379 -95.74145508 45.34106445 C-91.20081622 42.85163327 -86.65500097 40.37170746 -82.10913086 37.8918457 C-81.20614258 37.3987793 -80.3031543 36.90571289 -79.37280273 36.39770508 C-74.61290009 33.80047582 -69.84765476 31.21367273 -65.07397461 28.6418457 C-54.94212144 23.18022073 -44.86057083 17.65181649 -34.85913086 11.9543457 C-21.79917482 4.55029347 -21.79917482 4.55029347 -15.98413086 1.5168457 C-14.97350586 0.98446289 -13.96288086 0.45208008 -12.92163086 -0.09643555 C-8.36467281 -1.76287632 -4.53380447 -1.77858074 0 0 Z " fill="#1B2942" transform="translate(526.984130859375,342.170654296875)"/>
<path d="M0 0 C1.47545288 0.8185144 1.47545288 0.8185144 2.98071289 1.65356445 C4.09808838 2.26345215 5.21546387 2.87333984 6.36669922 3.50170898 C7.56239717 4.17316965 8.75795026 4.84488833 9.95336914 5.5168457 C11.20348607 6.20559741 12.45439375 6.89291563 13.70605469 7.57885742 C16.25621759 8.9785815 18.80212303 10.38561649 21.3449707 11.79858398 C25.66997712 14.19777206 30.02729626 16.53556045 34.38549805 18.8737793 C43.18320768 23.59888069 51.90338158 28.44543241 60.57836914 33.3918457 C69.07142311 38.23447172 77.6698267 42.81776329 86.36035156 47.29467773 C96.21980394 52.39960614 105.85847332 57.87792683 115.49145508 63.39526367 C118.75068824 65.24678549 122.03374078 67.05352462 125.32299805 68.85107422 C127.01586914 69.8293457 127.01586914 69.8293457 128.01586914 70.8293457 C128.12517818 72.53862561 128.16440811 74.25242008 128.17649841 75.96514893 C128.18654404 77.07838028 128.19658966 78.19161163 128.2069397 79.33857727 C128.21277069 80.57077499 128.21860168 81.80297272 128.22460938 83.07250977 C128.23439316 84.36184921 128.24417694 85.65118866 128.2542572 86.979599 C128.28569847 91.26802545 128.30591729 95.55647164 128.32446289 99.8449707 C128.32776021 100.57404601 128.33105753 101.30312132 128.33445477 102.05428982 C128.36524148 108.92802749 128.39195521 115.80176943 128.40887356 122.67555618 C128.430781 131.4740817 128.47274243 140.27199692 128.54231113 149.07027841 C128.58954017 155.25291243 128.61380571 161.43538175 128.62107044 167.61819053 C128.62602924 171.31248904 128.64112888 175.00610051 128.68081474 178.70020294 C128.72452438 182.82337902 128.72078676 186.94520337 128.71289062 191.06860352 C128.73289124 192.29270432 128.75289185 193.51680511 128.77349854 194.77799988 C128.70393144 202.84854196 128.70393144 202.84854196 126.72482681 205.66967201 C125.13493347 207.0295105 125.13493347 207.0295105 122.01586914 208.8293457 C121.15719238 209.34352051 120.29851562 209.85769531 119.41381836 210.38745117 C118.55804199 210.81944824 117.70226562 211.25144531 116.82055664 211.6965332 C115.86318604 212.18621582 114.90581543 212.67589844 113.91943359 213.18041992 C112.42029419 213.93476318 112.42029419 213.93476318 110.89086914 214.7043457 C103.66012339 218.40306116 96.56111169 222.17436121 89.59008789 226.34106445 C86.98458126 227.84743475 84.34381375 229.1939659 81.64086914 230.5168457 C72.9422638 234.78707014 64.49913321 239.53604667 56.00415039 244.1940918 C51.09902992 246.87828272 46.18292821 249.54210422 41.26586914 252.2043457 C40.28803467 252.73406982 39.3102002 253.26379395 38.30273438 253.80957031 C32.83815724 256.76772098 27.36876863 259.71678439 21.89477539 262.6574707 C21.30278351 262.97563751 20.71079163 263.29380432 20.1008606 263.62161255 C17.22799642 265.16558303 14.35447106 266.70829371 11.47973633 268.2487793 C9.92947754 269.08143311 9.92947754 269.08143311 8.34790039 269.9309082 C7.43758057 270.41897949 6.52726074 270.90705078 5.58935547 271.40991211 C3.83869032 272.37550998 2.11932357 273.39962053 0.43237305 274.47265625 C-3.49507726 276.67763113 -6.60096137 276.68877479 -10.98413086 275.8293457 C-15.54325375 273.96886274 -19.77613026 271.57666279 -24.04663086 269.1418457 C-25.28810143 268.45262737 -26.53063327 267.76531752 -27.77416992 267.07983398 C-30.30448602 265.68216821 -32.82925212 264.27521488 -35.34985352 262.86010742 C-40.6104426 259.91179653 -45.92465275 257.06332942 -51.23413086 254.2043457 C-53.19548647 253.1413147 -55.15642514 252.07751404 -57.11694336 251.01293945 C-61.08953075 248.85675228 -65.06348651 246.70312515 -69.03881836 244.55200195 C-105.51912337 224.81161522 -105.51912337 224.81161522 -120.89794922 216.20898438 C-125.85636511 213.43778777 -130.85737062 210.76255985 -135.91772461 208.1809082 C-138.3216828 206.60856504 -139.47154946 205.2727982 -140.98413086 202.8293457 C-141.36724091 200.3052454 -141.36724091 200.3052454 -141.37854004 197.40870667 C-141.38988983 196.30817963 -141.40123962 195.20765259 -141.41293335 194.07377625 C-141.41000275 192.87106583 -141.40707214 191.66835541 -141.40405273 190.42919922 C-141.41252228 189.15892883 -141.42099182 187.88865845 -141.42971802 186.57989502 C-141.45193177 183.09844372 -141.45486482 179.61722911 -141.4529705 176.13571668 C-141.4528508 173.22813184 -141.46141485 170.32059715 -141.46974802 167.41302627 C-141.48898143 160.55298608 -141.49186611 153.69306758 -141.48510742 146.83300781 C-141.47846566 139.75847916 -141.50133599 132.68447176 -141.53842115 125.61004883 C-141.56911835 119.53347664 -141.58047822 113.45707214 -141.57658434 107.38042396 C-141.57451689 103.75225653 -141.57999467 100.12449477 -141.60447693 96.49640083 C-141.63087878 92.45021174 -141.61701634 88.40512336 -141.59936523 84.35888672 C-141.61262848 83.15820053 -141.62589172 81.95751434 -141.63955688 80.72044373 C-141.55696964 72.59090583 -141.55696964 72.59090583 -138.57981873 68.63293457 C-136.30717246 67.05380806 -134.14682997 65.59749778 -131.67553711 64.35668945 C-130.85770752 63.93846924 -130.03987793 63.52024902 -129.19726562 63.08935547 C-128.32255615 62.65292725 -127.44784668 62.21649902 -126.54663086 61.7668457 C-124.64991558 60.79721479 -122.75411 59.82580273 -120.85913086 58.8527832 C-119.88588867 58.35488281 -118.91264648 57.85698242 -117.90991211 57.34399414 C-113.2496159 54.93140421 -108.6473461 52.4157374 -104.04663086 49.8918457 C-103.13518311 49.39281738 -102.22373535 48.89378906 -101.28466797 48.37963867 C-99.43661751 47.3673515 -97.58887945 46.35449379 -95.74145508 45.34106445 C-91.20081622 42.85163327 -86.65500097 40.37170746 -82.10913086 37.8918457 C-81.20614258 37.3987793 -80.3031543 36.90571289 -79.37280273 36.39770508 C-74.61290009 33.80047582 -69.84765476 31.21367273 -65.07397461 28.6418457 C-54.94212144 23.18022073 -44.86057083 17.65181649 -34.85913086 11.9543457 C-21.79917482 4.55029347 -21.79917482 4.55029347 -15.98413086 1.5168457 C-14.97350586 0.98446289 -13.96288086 0.45208008 -12.92163086 -0.09643555 C-8.36467281 -1.76287632 -4.53380447 -1.77858074 0 0 Z M-14.07788086 27.36450195 C-15.09382324 27.91887939 -16.10976563 28.47325684 -17.15649414 29.04443359 C-18.25461426 29.65407959 -19.35273438 30.26372559 -20.48413086 30.8918457 C-22.24019969 31.85266939 -23.99627996 32.81347273 -25.75296021 33.7731781 C-27.59522083 34.78060008 -29.43565961 35.7913012 -31.27612305 36.80200195 C-37.19514851 40.04572879 -43.15472056 43.21367403 -49.10913086 46.3918457 C-65.75442158 55.2952744 -82.34701558 64.29515552 -98.92163086 73.3293457 C-99.80318848 73.80976318 -100.68474609 74.29018066 -101.59301758 74.78515625 C-102.4323584 75.24317627 -103.27169922 75.70119629 -104.13647461 76.1730957 C-104.85826904 76.5669043 -105.58006348 76.96071289 -106.32373047 77.36645508 C-110.2177464 79.50768142 -114.09946697 81.6711991 -117.98413086 83.8293457 C-117.98413086 119.1393457 -117.98413086 154.4493457 -117.98413086 190.8293457 C-108.18741493 196.33999841 -98.40279246 201.80275617 -88.48413086 207.0793457 C-86.04089778 208.38305142 -83.598435 209.6881971 -81.15600586 210.9934082 C-80.55008606 211.31703339 -79.94416626 211.64065857 -79.31988525 211.97409058 C-73.4463538 215.11279908 -67.58817156 218.27946989 -61.73413086 221.4543457 C-60.76531982 221.97963867 -59.79650879 222.50493164 -58.79833984 223.04614258 C-54.82795646 225.19970554 -50.85833234 227.35466492 -46.88891602 229.51000977 C-45.33696533 230.35257324 -45.33696533 230.35257324 -43.75366211 231.2121582 C-42.72394287 231.77128906 -41.69422363 232.33041992 -40.63330078 232.90649414 C-37.6201453 234.53950382 -34.60305764 236.16506716 -31.58569336 237.7902832 C-28.01606646 239.71595484 -24.47129343 241.67695632 -20.94506836 243.6809082 C-20.17477295 244.11048828 -19.40447754 244.54006836 -18.61083984 244.98266602 C-17.20609132 245.76658055 -15.80890962 246.56430354 -14.421875 247.37915039 C-9.82721916 249.91256853 -7.01872485 250.23396438 -1.98413086 248.8293457 C0.97485793 247.56982804 3.76641315 246.07379821 6.57836914 244.5168457 C7.40135498 244.07244141 8.22434082 243.62803711 9.07226562 243.17016602 C11.72601905 241.73376497 14.37114993 240.28230278 17.01586914 238.8293457 C18.75504241 237.88197793 20.49462587 236.93536281 22.23461914 235.98950195 C25.87670844 234.00754495 29.51543592 232.01956582 33.15258789 230.02856445 C39.38396982 226.62224445 45.63611218 223.25500292 51.89086914 219.8918457 C60.47731189 215.27259319 69.06328804 210.6525389 77.64086914 206.0168457 C78.55078613 205.52643799 79.46070313 205.03603027 80.39819336 204.53076172 C88.6625984 200.06020683 96.82230695 195.43822443 105.01586914 190.8293457 C105.01586914 155.5193457 105.01586914 120.2093457 105.01586914 83.8293457 C87.04583455 74.02221355 87.04583455 74.02221355 69.01586914 64.3293457 C60.66197377 59.86668601 52.32367451 55.37735241 44.01586914 50.8293457 C36.06865709 46.48130659 28.10234709 42.16961911 20.11987305 37.88671875 C18.90509485 37.23485924 17.69056717 36.5825326 16.47631836 35.9296875 C12.66424667 33.88076561 8.84337147 31.84928154 5.01586914 29.8293457 C4.05616211 29.31742676 3.09645508 28.80550781 2.10766602 28.27807617 C1.2265918 27.81933105 0.34551758 27.36058594 -0.56225586 26.88793945 C-1.70549316 26.28743774 -1.70549316 26.28743774 -2.87182617 25.67480469 C-7.35067898 23.8821247 -10.13415256 25.18881188 -14.07788086 27.36450195 Z " fill="#3CBBD2" transform="translate(526.984130859375,342.170654296875)"/>
<path d="M0 0 C7.05375 -0.061875 14.1075 -0.12375 21.375 -0.1875 C23.58106934 -0.21481201 25.78713867 -0.24212402 28.06005859 -0.27026367 C29.83951269 -0.27903841 31.61897288 -0.28668 33.3984375 -0.29296875 C34.29731689 -0.30831665 35.19619629 -0.32366455 36.12231445 -0.33947754 C48.49291211 -0.34450487 57.84099472 4.01432061 66.8125 12.375 C74.85841069 20.79427081 75.450742 30.295734 75.28515625 41.42578125 C74.87912243 51.36034743 70.60257233 59.70939818 63.5 66.5625 C56.78296338 72.25682991 47.47056371 76.13961931 38.59863281 76.11352539 C37.72609863 76.11340454 36.85356445 76.11328369 35.95458984 76.11315918 C34.59261475 76.10548523 34.59261475 76.10548523 33.203125 76.09765625 C32.36185059 76.09664917 31.52057617 76.09564209 30.65380859 76.09460449 C27.51919181 76.08938295 24.3845945 76.07542168 21.25 76.0625 C14.2375 76.041875 7.225 76.02125 0 76 C0 50.92 0 25.84 0 0 Z " fill="#F9F9FA" transform="translate(1017,388)"/>
<path d="M0 0 C6.27 0 12.54 0 19 0 C23.43570699 13.18390689 27.63304845 26.38653622 31.25 39.8215332 C32.29438449 43.65786602 33.41742242 47.34119678 35 51 C37.42086694 43.85017249 39.66852936 36.65608281 41.875 29.4375 C42.58045548 27.13663482 43.28618445 24.83585347 43.9921875 22.53515625 C44.50410645 20.86670654 44.50410645 20.86670654 45.02636719 19.16455078 C46.99408635 12.76897009 48.99698661 6.38460517 51 0 C56.61 0 62.22 0 68 0 C68.35191406 1.20011719 68.70382812 2.40023438 69.06640625 3.63671875 C72.04336868 13.71243448 75.17120998 23.7184138 78.55102539 33.66674805 C80.49681818 39.40862738 82.29363656 45.18246603 84 51 C86.92090002 43.34835772 89.30629092 35.65463672 91.4375 27.75 C94.00754184 18.37980959 96.81202259 9.17751072 100 0 C105.94 0 111.88 0 118 0 C116.87515457 7.87391799 116.87515457 7.87391799 115.83251953 10.92480469 C115.60202911 11.60951843 115.3715387 12.29423218 115.13406372 12.99969482 C114.88615082 13.71651428 114.63823792 14.43333374 114.3828125 15.171875 C113.99607864 16.31647186 113.99607864 16.31647186 113.60153198 17.48419189 C112.78176651 19.90812345 111.95400324 22.32921387 111.125 24.75 C110.04013601 27.93090068 108.95928682 31.11312529 107.8828125 34.296875 C107.62458206 35.05975327 107.36635162 35.82263153 107.10029602 36.60862732 C105.42226704 41.61252372 103.91643799 46.63219969 102.63012695 51.75317383 C101.70059682 55.06757362 100.37415396 58.19025246 99.05078125 61.36328125 C97.13768304 66.16380649 95.59937604 71.08763072 94 76 C87.73 76 81.46 76 75 76 C74.25234375 73.61265625 73.5046875 71.2253125 72.734375 68.765625 C71.99651507 66.41219094 71.25828424 64.05887352 70.52001953 61.70556641 C70.01344825 60.09012762 69.50725285 58.47457091 69.00146484 56.85888672 C66.08490671 47.54322677 63.13614838 38.24458253 60 29 C57.56470369 31.43529631 57.2059203 33.1666106 56.265625 36.46875 C55.94142578 37.58983154 55.61722656 38.71091309 55.28320312 39.8659668 C54.77176758 41.66481323 54.77176758 41.66481323 54.25 43.5 C51.08311572 54.43374061 47.6822389 65.22945123 44 76 C37.73 76 31.46 76 25 76 C24.45730469 74.34871094 23.91460938 72.69742188 23.35546875 70.99609375 C22.63297372 68.80984255 21.9103085 66.62364759 21.1875 64.4375 C20.83107422 63.35146484 20.47464844 62.26542969 20.10742188 61.14648438 C18.6929055 56.87698081 17.28757061 52.66948853 15.51171875 48.53515625 C13.20511855 43.14116869 11.45490982 37.57072609 9.625 32 C8.82694776 29.5832921 8.02877148 27.16662516 7.23046875 24.75 C6.84810059 23.58984375 6.46573242 22.4296875 6.07177734 21.234375 C5.16072325 18.48502543 4.23718026 15.74079219 3.30078125 13 C3.06472168 12.30648438 2.82866211 11.61296875 2.58544922 10.8984375 C1.98520885 9.13978297 1.38142858 7.3823377 0.77734375 5.625 C0 3 0 3 0 0 Z " fill="#F9F9FA" transform="translate(716,388)"/>
<path d="M0 0 C10.7971875 -0.12375 10.7971875 -0.12375 21.8125 -0.25 C24.06167236 -0.28641602 26.31084473 -0.32283203 28.62817383 -0.36035156 C52.40217643 -0.58607222 52.40217643 -0.58607222 61.5625 8.33203125 C67.16539482 14.83321627 67.64511078 20.92901042 67.375 29.4375 C66.52816044 37.48247581 63.01749514 41.50763357 56.90234375 46.5546875 C55.31197388 47.76297672 53.66186069 48.89209287 52 50 C53.49935566 52.10462834 54.99938936 54.20876662 56.5 56.3125 C56.94907715 56.94244873 57.3981543 57.57239746 57.86083984 58.22143555 C61.39809069 63.17596241 64.98448677 68.09164711 68.6015625 72.98828125 C70 75 70 75 70 76 C63.08428045 77.27505821 55.76540533 78.35361442 49 76 C42.10740553 70.19570992 37.16489966 60.65959866 35 52 C29.39 52 23.78 52 18 52 C18 60.25 18 68.5 18 77 C12.06 77 6.12 77 0 77 C0 51.59 0 26.18 0 0 Z " fill="#F8F8F9" transform="translate(932,388)"/>
<path d="M0 0 C4.00315668 0.60312836 6.99786227 1.87388644 10.54296875 3.80859375 C11.60765381 4.38577148 12.67233887 4.96294922 13.76928711 5.55761719 C14.89729736 6.17797852 16.02530762 6.79833984 17.1875 7.4375 C18.36503304 8.07896977 19.5428514 8.71991603 20.72094727 9.36035156 C27.31478272 12.95123758 33.88058452 16.59225359 40.4375 20.25 C42.54915058 21.42175905 44.66146092 22.59231016 46.77441406 23.76171875 C48.36026799 24.6440631 49.94258324 25.5327803 51.52246094 26.42578125 C54.1099067 27.88452717 56.70963685 29.31898542 59.3125 30.75 C60.50540649 31.43304199 60.50540649 31.43304199 61.72241211 32.12988281 C62.47014893 32.53561523 63.21788574 32.94134766 63.98828125 33.359375 C64.64352783 33.72514648 65.29877441 34.09091797 65.97387695 34.46777344 C68.88934319 35.23361467 70.33162896 34.31291956 73 33 C73.82943115 32.59410645 74.6588623 32.18821289 75.51342773 31.77001953 C76.39458252 31.31224121 77.2757373 30.85446289 78.18359375 30.3828125 C79.18277832 29.86420654 80.18196289 29.34560059 81.21142578 28.8112793 C82.27603027 28.25480713 83.34063477 27.69833496 84.4375 27.125 C85.54335449 26.54854736 86.64920898 25.97209473 87.78857422 25.37817383 C95.10566908 21.5503121 102.38073905 17.65129266 109.625 13.6875 C110.97428589 12.95067993 110.97428589 12.95067993 112.35083008 12.19897461 C116.43342867 9.96598017 120.50653931 7.71853237 124.5625 5.4375 C125.91659786 4.68737577 127.27075977 3.93736716 128.625 3.1875 C129.77226563 2.54167969 130.91953125 1.89585937 132.1015625 1.23046875 C135.23220705 -0.09857846 135.95075147 -0.21489023 139 1 C140.5864403 3.41350844 141.9006385 5.68593451 143.1875 8.25 C143.54263672 8.91902344 143.89777344 9.58804687 144.26367188 10.27734375 C146.12469185 13.8722552 147.30271871 16.98165148 148 21 C147.32759277 21.36125977 146.65518555 21.72251953 145.96240234 22.09472656 C131.53332233 29.84934672 117.1241438 37.63828632 102.75146484 45.49707031 C99.83184543 47.09185089 96.91028634 48.68303254 93.98828125 50.2734375 C92.50086426 51.08337158 92.50086426 51.08337158 90.98339844 51.90966797 C89.09499937 52.93783844 87.2063449 53.96554005 85.31738281 54.99267578 C84.46112305 55.45915527 83.60486328 55.92563477 82.72265625 56.40625 C81.90941895 56.84453125 81.09618164 57.2828125 80.25830078 57.734375 C78.83426281 58.53245206 77.4318738 59.37177054 76.06591797 60.265625 C73.18034461 62.13856175 71.22710119 62.9917717 67.765625 63.1171875 C62.33914109 61.50725555 57.67007453 58.89033741 52.75 56.125 C51.69603027 55.54363281 50.64206055 54.96226562 49.55615234 54.36328125 C42.11833524 50.24201002 34.73291764 46.02611927 27.41699219 41.69189453 C23.72212015 39.51380223 20.0056424 37.47560438 16.15625 35.58203125 C10.59598363 32.8431686 5.23983696 29.78810451 -0.125 26.6875 C-1.08148438 26.13771484 -2.03796875 25.58792969 -3.0234375 25.02148438 C-5.35040636 23.68347728 -7.67588561 22.34295707 -10 21 C-8.51991304 15.99886406 -6.3681664 11.67084403 -3.875 7.125 C-3.50246094 6.43664062 -3.12992187 5.74828125 -2.74609375 5.0390625 C-1.83500474 3.35705202 -0.91809685 1.67819564 0 0 Z " fill="#3CB9D0" transform="translate(452,464)"/>
<path d="M0 0 C0.87454834 0.00523682 1.74909668 0.01047363 2.65014648 0.01586914 C3.59438477 0.0190918 4.53862305 0.02231445 5.51147461 0.02563477 C6.50469727 0.03401367 7.49791992 0.04239258 8.52124023 0.05102539 C9.51833008 0.05553711 10.51541992 0.06004883 11.54272461 0.06469727 C14.01478872 0.07652532 16.48673541 0.0930069 18.95874023 0.11352539 C19.3564563 1.05929443 19.3564563 1.05929443 19.76220703 2.02416992 C25.32076285 15.23062579 30.93507316 28.40998127 36.64624023 41.55102539 C40.38734725 50.1621662 44.11910139 58.77666504 47.77124023 67.42602539 C48.102771 68.20840576 48.43430176 68.99078613 48.77587891 69.796875 C50.95874023 74.99082735 50.95874023 74.99082735 50.95874023 76.11352539 C44.68874023 76.11352539 38.41874023 76.11352539 31.95874023 76.11352539 C25.95874023 63.48852539 25.95874023 63.48852539 25.95874023 60.11352539 C14.07874023 60.11352539 2.19874023 60.11352539 -10.04125977 60.11352539 C-10.37125977 61.76352539 -10.70125977 63.41352539 -11.04125977 65.11352539 C-12.57792338 68.84686224 -14.323409 72.45758657 -16.04125977 76.11352539 C-22.31125977 76.11352539 -28.58125977 76.11352539 -35.04125977 76.11352539 C-30.5115101 63.40506106 -25.14515838 51.17515652 -19.61412048 38.87376404 C-17.43971309 34.02725572 -15.30651135 29.16342611 -13.18579102 24.29321289 C-12.86556976 23.55818542 -12.54534851 22.82315796 -12.21542358 22.06585693 C-10.9467433 19.15226954 -9.67884574 16.23835319 -8.41479492 13.32275391 C-7.53835666 11.30162285 -6.65916644 9.2817084 -5.77954102 7.26196289 C-5.27463135 6.09842285 -4.76972168 4.93488281 -4.24951172 3.73608398 C-2.59472619 0.14430662 -2.59472619 0.14430662 0 0 Z " fill="#F9F9FA" transform="translate(869.041259765625,387.886474609375)"/>
<path d="M0 0 C7.25242004 7.81156353 9.65453616 14.89516717 9.41796875 25.484375 C8.51407001 33.0872616 4.87579883 39.12738634 -1 44 C-10.46287207 51.14972556 -19.54278162 52.04579072 -31 51 C-34.37109103 50.12181662 -37.06752784 48.86005982 -40 47 C-40.64453125 46.61457031 -41.2890625 46.22914063 -41.953125 45.83203125 C-48.39990812 41.64703969 -52.27805805 35.44927062 -54 28 C-54.87957124 19.28749026 -54.28447961 11.59011125 -49.11328125 4.36328125 C-43.53584006 -2.30434042 -38.35510105 -5.66122474 -30 -7.75 C-18.99672818 -8.66693932 -8.78304971 -7.30976395 0 0 Z " fill="#1E2B43" transform="translate(895,511)"/>
<path d="M0 0 C6.38547118 6.37371157 9.27238348 12.67869956 9.375 21.75 C9.22719013 30.5169729 6.95792121 37.95935744 0.8984375 44.46484375 C-4.71905775 49.00738621 -11.82690486 51.61572705 -19 52 C-19.83144531 52.061875 -20.66289063 52.12375 -21.51953125 52.1875 C-30.46351818 52.58779032 -37.38785702 50.39395837 -44.375 44.75 C-49.47500101 39.96939299 -52.76972418 33.73312529 -53.203125 26.70703125 C-53.32260747 16.78002959 -52.84422254 9.2273629 -45.79296875 1.6015625 C-32.84726279 -9.96213999 -13.98818186 -9.41643462 0 0 Z " fill="#1E2B42" transform="translate(1145,510)"/>
<path d="M0 0 C0.84087158 0.00829834 1.68174316 0.01659668 2.5480957 0.02514648 C12.18754655 0.28733656 18.93066161 2.91881477 25.99609375 9.5703125 C31.70710291 15.87484455 33.01578713 22.2176239 32.89453125 30.49609375 C32.26947807 39.37656627 29.19360148 45.40711347 22.6875 51.4375 C14.55447479 57.97928115 5.87620315 59.23088262 -4.3125 58.4375 C-13.0959892 57.22752955 -19.31417261 53.31184098 -24.80078125 46.54296875 C-30.48042566 38.63255962 -30.52706039 28.83848207 -29.3125 19.4375 C-27.2745822 12.54065782 -22.21402145 7.37865446 -16.3125 3.4375 C-10.76070897 0.52161467 -6.22896552 -0.07887911 0 0 Z " fill="#1C2941" transform="translate(993.3125,503.5625)"/>
<path d="M0 0 C4.785 -0.04125 9.57 -0.0825 14.5 -0.125 C16.74006836 -0.15231201 16.74006836 -0.15231201 19.02539062 -0.18017578 C28.54246952 -0.21985161 36.26538521 -0.15253449 44 6 C47.83200507 10.14270818 48.77532831 12.70834881 49.3125 18.1875 C48.9087073 23.1137709 47.82307981 26.90986863 45 31 C42.18317435 33.36593961 39.22622961 35.24211848 36 37 C36.67546875 37.94101562 37.3509375 38.88203125 38.046875 39.8515625 C38.94796804 41.1093382 39.84900681 42.36715277 40.75 43.625 C41.1934375 44.24246094 41.636875 44.85992188 42.09375 45.49609375 C44.80507562 49.28397513 47.438174 53.1093764 50 57 C46.39395104 57.89767602 43.58797597 58.04811798 40 57 C35.14718978 52.26437412 31.35060518 46.66420747 28.2890625 40.625 C25.75185149 37.71543379 25.30663346 37.57410784 21.671875 37.1953125 C20.03211778 37.13703771 18.39078653 37.12060974 16.75 37.125 C13.8625 37.08375 10.975 37.0425 8 37 C8 43.6 8 50.2 8 57 C5.36 57 2.72 57 0 57 C0 38.19 0 19.38 0 0 Z " fill="#F5F5F6" transform="translate(783,504)"/>
<path d="M0 0 C7.610625 -0.1546875 7.610625 -0.1546875 15.375 -0.3125 C16.95458496 -0.35802002 18.53416992 -0.40354004 20.16162109 -0.45043945 C29.12663872 -0.53828733 36.85455693 0.11412381 43.66967773 6.58544922 C48.09748706 11.67840011 48.35602644 15.32094756 48.26953125 21.88671875 C47.88520366 26.32598096 46.86118257 29.55701708 44 33 C38.19305844 37.84922051 32.74629563 39.13768073 25.26171875 39.09765625 C24.19501953 39.09443359 23.12832031 39.09121094 22.02929688 39.08789062 C20.37510742 39.07532227 20.37510742 39.07532227 18.6875 39.0625 C17.56537109 39.05798828 16.44324219 39.05347656 15.28710938 39.04882812 C12.52471664 39.03707326 9.76235144 39.01913869 7 39 C7 44.94 7 50.88 7 57 C4.69 57 2.38 57 0 57 C0 38.19 0 19.38 0 0 Z " fill="#F5F5F6" transform="translate(723,504)"/>
<path d="M0 0 C22 0 22 0 31 4 C36.65247615 9.65247615 39.27652346 14.09614235 39.375 22.25 C39.24682592 29.80372603 37.39051833 34.83607867 32.875 40.8125 C22.3887656 48.79115661 14.23012682 47 0 47 C0 31.49 0 15.98 0 0 Z " fill="#1E2B43" transform="translate(1035,403)"/>
<path d="M0 0 C7.25242004 7.81156353 9.65453616 14.89516717 9.41796875 25.484375 C8.51407001 33.0872616 4.87579883 39.12738634 -1 44 C-10.46287207 51.14972556 -19.54278162 52.04579072 -31 51 C-34.37109103 50.12181662 -37.06752784 48.86005982 -40 47 C-40.64453125 46.61457031 -41.2890625 46.22914063 -41.953125 45.83203125 C-48.39990812 41.64703969 -52.27805805 35.44927062 -54 28 C-54.87957124 19.28749026 -54.28447961 11.59011125 -49.11328125 4.36328125 C-43.53584006 -2.30434042 -38.35510105 -5.66122474 -30 -7.75 C-18.99672818 -8.66693932 -8.78304971 -7.30976395 0 0 Z M-40.875 7 C-44.82857169 11.68046155 -45.17784191 15.2331811 -45.25 21.3125 C-45.27578125 22.60800781 -45.3015625 23.90351562 -45.328125 25.23828125 C-44.75697097 31.78615419 -41.89112437 35.77584713 -37 40 C-30.75500823 44.81384782 -24.72086723 44.93472969 -17 44 C-11.72392184 42.48370774 -6.84378491 39.9568374 -3 36 C-0.39374802 30.91432096 0.49759282 26.67909554 0.4375 20.9375 C0.45748047 20.25623047 0.47746094 19.57496094 0.49804688 18.87304688 C0.4923912 12.98549135 -1.55657075 9.57466203 -5.52734375 5.390625 C-15.91290851 -3.00988722 -31.74060524 -2.97813404 -40.875 7 Z " fill="#F1F1F3" transform="translate(895,511)"/>
<path d="M0 0 C0.84087158 0.00829834 1.68174316 0.01659668 2.5480957 0.02514648 C12.18754655 0.28733656 18.93066161 2.91881477 25.99609375 9.5703125 C31.70710291 15.87484455 33.01578713 22.2176239 32.89453125 30.49609375 C32.26947807 39.37656627 29.19360148 45.40711347 22.6875 51.4375 C14.55447479 57.97928115 5.87620315 59.23088262 -4.3125 58.4375 C-13.0959892 57.22752955 -19.31417261 53.31184098 -24.80078125 46.54296875 C-30.48042566 38.63255962 -30.52706039 28.83848207 -29.3125 19.4375 C-27.2745822 12.54065782 -22.21402145 7.37865446 -16.3125 3.4375 C-10.76070897 0.52161467 -6.22896552 -0.07887911 0 0 Z M-18.25 15.5625 C-22.67179309 21.72621159 -21.96715045 29.16939222 -21.3125 36.4375 C-19.33642999 42.64678897 -16.09614874 46.3610911 -10.3125 49.4375 C-9.71953125 49.79199219 -9.1265625 50.14648438 -8.515625 50.51171875 C-3.13695463 52.7719047 3.82354881 52.21097587 9.36328125 50.71484375 C16.42583414 47.78299406 20.70475869 43.51631782 23.6875 36.4375 C24.05009018 33.6998036 24.25969039 31.29260696 24.25 28.5625 C24.24637451 27.50240723 24.24637451 27.50240723 24.24267578 26.42089844 C24.05469225 21.09592696 23.02854108 17.79297662 19.41015625 13.91796875 C12.28488302 7.79443461 5.8109443 6.90947593 -3.34375 7.09375 C-10.20357252 7.68790786 -13.80661184 10.56992903 -18.25 15.5625 Z " fill="#F3F4F5" transform="translate(993.3125,503.5625)"/>
<path d="M0 0 C6.38547118 6.37371157 9.27238348 12.67869956 9.375 21.75 C9.22719013 30.5169729 6.95792121 37.95935744 0.8984375 44.46484375 C-4.71905775 49.00738621 -11.82690486 51.61572705 -19 52 C-19.83144531 52.061875 -20.66289063 52.12375 -21.51953125 52.1875 C-30.46351818 52.58779032 -37.38785702 50.39395837 -44.375 44.75 C-49.47500101 39.96939299 -52.76972418 33.73312529 -53.203125 26.70703125 C-53.32260747 16.78002959 -52.84422254 9.2273629 -45.79296875 1.6015625 C-32.84726279 -9.96213999 -13.98818186 -9.41643462 0 0 Z M-41 8 C-45.80757247 14.30525859 -45.92999953 21.33948844 -45 29 C-43.06902936 36.02690498 -38.19772488 40.30344825 -32.23046875 44.13671875 C-26.36314992 46.40760747 -18.19852552 45.96856759 -12.2265625 44.16015625 C-5.91913406 40.96338791 -1.24082578 35.72247735 1 29 C1.63370139 21.4059719 1.99688527 14.16188942 -3 8 C-8.80269526 2.26149385 -14.38807169 0.41926621 -22.4375 -0.3125 C-29.85364798 0.3380393 -35.77268747 2.52955665 -41 8 Z " fill="#F4F4F6" transform="translate(1145,510)"/>
<path d="M0 0 C0.90234375 -0.00708984 1.8046875 -0.01417969 2.734375 -0.02148438 C8.36323093 0.03185027 12.36781643 0.85159835 17.375 3.4375 C17.375 5.4175 17.375 7.3975 17.375 9.4375 C16.240625 9.28023437 15.10625 9.12296875 13.9375 8.9609375 C-0.13257768 7.00608515 -0.13257768 7.00608515 -13.4375 10.4375 C-18.16164767 14.22328957 -21.45490391 19.50511283 -22.625 25.4375 C-23.20759608 32.19561448 -21.89721975 37.46490473 -18.625 43.4375 C-16.28669042 45.9779226 -16.28669042 45.9779226 -13.625 47.4375 C-12.985625 47.829375 -12.34625 48.22125 -11.6875 48.625 C-2.58850649 52.20945199 8.17115616 50.89185836 17.375 48.4375 C17.375 50.7475 17.375 53.0575 17.375 55.4375 C7.8390697 59.52432727 -3.6639949 60.11451076 -13.5625 56.875 C-21.19173219 53.63938813 -26.50124724 48.88935026 -29.93359375 41.33203125 C-33.04954266 32.79397916 -32.83718505 22.97760984 -29.01171875 14.72265625 C-22.27810572 3.62642069 -12.55450136 -0.28039592 0 0 Z " fill="#F1F1F3" transform="translate(1066.625,503.5625)"/>
<path d="M0 0 C3.465 -0.0825 6.93 -0.165 10.5 -0.25 C12.11358398 -0.30462402 12.11358398 -0.30462402 13.75976562 -0.36035156 C19.94116044 -0.43106124 24.9482298 0.19996753 30 4 C32.84701905 8.27052857 32.48951706 11.99248123 32 17 C30.40211935 21.59390686 27.58484368 23.13481486 23.40234375 25.16650391 C18.9995563 26.69405638 14.60406667 26.41380968 10 26.25 C5.05 26.12625 5.05 26.12625 0 26 C0 17.42 0 8.84 0 0 Z " fill="#1F2C44" transform="translate(731,511)"/>
<path d="M0 0 C3.3 -0.061875 6.6 -0.12375 10 -0.1875 C11.53527344 -0.22846802 11.53527344 -0.22846802 13.1015625 -0.27026367 C19.76219278 -0.33019388 25.8993244 0.04082349 30.96875 4.87890625 C32.8833214 8.81683152 32.7448182 12.7448812 32 17 C29.44650091 20.40466546 26.90676762 22.40049645 23 24 C20.43457031 24.22705078 20.43457031 24.22705078 17.578125 24.1953125 C16.65418945 24.19031738 15.73025391 24.18532227 14.77832031 24.18017578 C13.03180176 24.15286377 13.03180176 24.15286377 11.25 24.125 C7.5375 24.08375 3.825 24.0425 0 24 C0 16.08 0 8.16 0 0 Z " fill="#212E46" transform="translate(791,511)"/>
<path d="M0 0 C16.83 0 33.66 0 51 0 C51 2.31 51 4.62 51 7 C43.74 7 36.48 7 29 7 C29 23.5 29 40 29 57 C26.69 57 24.38 57 22 57 C22 40.5 22 24 22 7 C14.74 7 7.48 7 0 7 C0 4.69 0 2.38 0 0 Z " fill="#F2F2F3" transform="translate(908,504)"/>
<path d="M0 0 C3.320625 -0.061875 6.64125 -0.12375 10.0625 -0.1875 C11.09511963 -0.21481201 12.12773926 -0.24212402 13.19165039 -0.27026367 C19.84240716 -0.3299261 24.34941212 0.47151905 29.90625 4.3203125 C32.45311506 8.23156955 31.64551158 13.57107333 31 18 C28.3719145 21.72312113 26.39369539 23.19847439 22 24 C20.26714352 24.07952806 18.53152614 24.10774143 16.796875 24.09765625 C15.91354492 24.09515869 15.03021484 24.09266113 14.12011719 24.09008789 C13.00797852 24.08098389 11.89583984 24.07187988 10.75 24.0625 C7.2025 24.041875 3.655 24.02125 0 24 C0 16.08 0 8.16 0 0 Z " fill="#222E47" transform="translate(950,402)"/>
<path d="M0 0 C2.64 0 5.28 0 8 0 C8 16.5 8 33 8 50 C18.56 50 29.12 50 40 50 C40 52.31 40 54.62 40 57 C26.8 57 13.6 57 0 57 C0 38.19 0 19.38 0 0 Z " fill="#F1F2F3" transform="translate(1167,504)"/>
<path d="M0 0 C0.66 0 1.32 0 2 0 C3.67826923 3.91179561 5.34057804 7.83017624 7 11.75 C7.47695313 12.86117188 7.95390625 13.97234375 8.4453125 15.1171875 C8.89648438 16.18710937 9.34765625 17.25703125 9.8125 18.359375 C10.23144531 19.34389648 10.65039062 20.32841797 11.08203125 21.34277344 C12 24 12 24 12 28 C4.41 28 -3.18 28 -11 28 C-7.66322271 18.52355249 -3.86814238 9.26832992 0 0 Z " fill="#223048" transform="translate(876,406)"/>
</svg>
