<?xml version="1.0" encoding="UTF-8"?>
<svg version="1.1" xmlns="http://www.w3.org/2000/svg" width="1536" height="1024">
<path d="M0 0 C506.88 0 1013.76 0 1536 0 C1536 337.92 1536 675.84 1536 1024 C1029.12 1024 522.24 1024 0 1024 C0 686.08 0 348.16 0 0 Z " fill="#FCFCFC" transform="translate(0,0)"/>
<path d="M0 0 C2.6640625 1.22265625 2.6640625 1.22265625 5.625 3.0625 C12.74664267 7.34883993 20.03847652 11.28302163 27.375 15.1875 C29.83373597 16.4992462 32.29185666 17.81214366 34.75 19.125 C35.36123718 19.45126373 35.97247437 19.77752747 36.60223389 20.11367798 C51.02045893 27.81332375 65.36682027 35.6472996 79.71240234 43.48120117 C86.46721738 47.16845149 93.23203781 50.83694733 100 54.5 C101.99609695 55.58202535 103.99219071 56.66405659 105.98828125 57.74609375 C110.06457578 59.95494625 114.14604646 62.15387349 118.23046875 64.34765625 C120.21620505 65.41916109 122.20188435 66.49077158 124.1875 67.5625 C125.10208984 68.05105469 126.01667969 68.53960937 126.95898438 69.04296875 C138.01254655 75.0250931 138.01254655 75.0250931 140 79 C140.10211297 80.8637604 140.13949247 82.73119272 140.14717102 84.59773254 C140.15790398 86.38323265 140.15790398 86.38323265 140.16885376 88.20480347 C140.17154266 89.51756256 140.17423157 90.83032166 140.17700195 92.18286133 C140.1832658 93.57404246 140.18991253 94.96522192 140.19691467 96.35639954 C140.21433137 100.14161424 140.22487821 103.92681631 140.2331202 107.71206117 C140.23826887 110.0763453 140.24434465 112.44062549 140.25063133 114.80490685 C140.26968515 122.20045424 140.28391597 129.59599163 140.2922433 136.99155885 C140.30201795 145.53177223 140.32834239 154.07172657 140.36874419 162.61184865 C140.39889187 169.21064088 140.41371088 175.8093588 140.41702431 182.40821856 C140.41937633 186.35048226 140.42835595 190.2924693 140.45348549 194.23465919 C140.476748 197.94392231 140.48100711 201.65272625 140.47072411 205.36204338 C140.46999185 207.37093914 140.48909586 209.37981148 140.50878906 211.38861084 C140.49837334 213.18680016 140.49837334 213.18680016 140.48774719 215.02131653 C140.49013555 216.06126676 140.4925239 217.10121698 140.49498463 218.17268085 C139.86963853 221.74461602 138.47712489 223.40017954 136 226 C133.60009766 227.57055664 133.60009766 227.57055664 130.9140625 228.91015625 C129.41202271 229.67271729 129.41202271 229.67271729 127.87963867 230.45068359 C126.80560791 230.98258301 125.73157715 231.51448242 124.625 232.0625 C122.34148871 233.22076711 120.05895284 234.38095906 117.77734375 235.54296875 C116.0600708 236.41381104 116.0600708 236.41381104 114.30810547 237.30224609 C109.55406281 239.74206991 104.86745433 242.29661501 100.1875 244.875 C91.82045203 249.47112452 83.41977648 254.00138945 75 258.5 C65.7250349 263.45727925 56.47234868 268.45286119 47.24633789 273.50073242 C36.90327788 279.15562297 26.53241726 284.76118499 16.12841797 290.30322266 C13.92839185 291.49646298 11.74642342 292.72330671 9.57861328 293.97412109 C8.45052246 294.61559082 7.32243164 295.25706055 6.16015625 295.91796875 C4.64047241 296.80198364 4.64047241 296.80198364 3.09008789 297.70385742 C-1.46589504 299.61487215 -5.09680098 299.6965115 -9.74047852 297.99707031 C-10.61115967 297.52881836 -11.48184082 297.06056641 -12.37890625 296.578125 C-13.37075928 296.05355713 -14.3626123 295.52898926 -15.38452148 294.98852539 C-16.43325439 294.41481201 -17.4819873 293.84109863 -18.5625 293.25 C-19.66730713 292.66017334 -20.77211426 292.07034668 -21.91040039 291.46264648 C-25.28217137 289.65714243 -28.64222439 287.83137717 -32 286 C-33.87229792 284.98549635 -35.74468765 283.97116213 -37.6171875 282.95703125 C-41.19897813 281.0115651 -44.77485495 279.05567071 -48.34765625 277.09375 C-54.50517373 273.71596146 -60.68904211 270.38784116 -66.875 267.0625 C-69.07685398 265.87766189 -71.27867695 264.69276615 -73.48046875 263.5078125 C-76.69319864 261.7790192 -79.90606668 260.05048787 -83.11962891 258.32324219 C-95.09219223 251.88457017 -107.00610829 245.36256196 -118.80444336 238.60888672 C-123.19590624 236.10483807 -127.59525906 233.66365273 -132.11328125 231.39453125 C-132.90033447 230.9965332 -133.6873877 230.59853516 -134.49829102 230.18847656 C-135.94535132 229.46486796 -137.3998541 228.75585596 -138.86303711 228.06542969 C-143.55309594 225.71832791 -145.24350465 223.91368917 -147 219 C-147.44152376 214.54614361 -147.40956456 210.11103885 -147.38818359 205.63842773 C-147.39225225 204.27621033 -147.39759578 202.91399622 -147.40411377 201.55178833 C-147.41775711 197.86382623 -147.41250153 194.17611671 -147.40297651 190.48815036 C-147.39536594 186.62409725 -147.40242926 182.76006534 -147.40713501 178.89601135 C-147.41258785 172.40890633 -147.40541269 165.92190389 -147.39111328 159.43481445 C-147.37478074 151.93888589 -147.38008146 144.44320205 -147.3965925 136.94727939 C-147.41021264 130.50549872 -147.41212467 124.06379165 -147.40427649 117.62200123 C-147.39960375 113.77712401 -147.39896424 109.93236178 -147.40888596 106.08749199 C-147.41756133 102.47340451 -147.4115236 98.85963225 -147.39420319 95.24557877 C-147.38835422 93.28924745 -147.39724855 91.33288943 -147.40658569 89.37657166 C-147.39812622 88.20880188 -147.38966675 87.0410321 -147.38095093 85.83787537 C-147.37981985 84.82524344 -147.37868877 83.81261152 -147.37752342 82.76929379 C-146.85609842 78.9444211 -145.3772212 76.16012229 -142.4140625 73.6640625 C-141.82367187 73.32117188 -141.23328125 72.97828125 -140.625 72.625 C-139.91730469 72.21121094 -139.20960938 71.79742187 -138.48046875 71.37109375 C-133.94084032 68.86178733 -129.38593434 66.3855195 -124.80303955 63.95596313 C-122.32180705 62.64042527 -119.84406055 61.31838241 -117.36611938 59.99665833 C-116.09460847 59.31845739 -114.82294059 58.64055069 -113.55111694 57.9629364 C-107.56223363 54.77103886 -101.59071012 51.54749668 -95.625 48.3125 C-94.64515137 47.78132568 -93.66530273 47.25015137 -92.65576172 46.70288086 C-86.13935034 43.16733497 -79.63126883 39.61666547 -73.125 36.0625 C-61.91293057 29.93845594 -50.66384484 23.88391512 -39.41113281 17.83496094 C-35.84319169 15.91564764 -32.27684096 13.99340761 -28.7109375 12.0703125 C-27.51270306 11.42430204 -26.31446096 10.77830577 -25.11621094 10.13232422 C-22.83538905 8.90259438 -20.5547807 7.67246837 -18.27441406 6.44189453 C-17.24799805 5.88872559 -16.22158203 5.33555664 -15.1640625 4.765625 C-14.26123535 4.27868164 -13.3584082 3.79173828 -12.42822266 3.29003906 C-11.62690918 2.86432617 -10.8255957 2.43861328 -10 2 C-8.93990723 1.42922729 -8.93990723 1.42922729 -7.85839844 0.84692383 C-5.09269826 -0.41348263 -3.00630755 -0.30668881 0 0 Z " fill="#FBFBFC" transform="translate(770,196)"/>
<path d="M0 0 C2.6640625 1.22265625 2.6640625 1.22265625 5.625 3.0625 C12.74664267 7.34883993 20.03847652 11.28302163 27.375 15.1875 C29.83373597 16.4992462 32.29185666 17.81214366 34.75 19.125 C35.36123718 19.45126373 35.97247437 19.77752747 36.60223389 20.11367798 C51.02045893 27.81332375 65.36682027 35.6472996 79.71240234 43.48120117 C86.46721738 47.16845149 93.23203781 50.83694733 100 54.5 C101.99609695 55.58202535 103.99219071 56.66405659 105.98828125 57.74609375 C110.06457578 59.95494625 114.14604646 62.15387349 118.23046875 64.34765625 C120.21620505 65.41916109 122.20188435 66.49077158 124.1875 67.5625 C125.10208984 68.05105469 126.01667969 68.53960937 126.95898438 69.04296875 C138.01254655 75.0250931 138.01254655 75.0250931 140 79 C140.10211297 80.8637604 140.13949247 82.73119272 140.14717102 84.59773254 C140.15790398 86.38323265 140.15790398 86.38323265 140.16885376 88.20480347 C140.17154266 89.51756256 140.17423157 90.83032166 140.17700195 92.18286133 C140.1832658 93.57404246 140.18991253 94.96522192 140.19691467 96.35639954 C140.21433137 100.14161424 140.22487821 103.92681631 140.2331202 107.71206117 C140.23826887 110.0763453 140.24434465 112.44062549 140.25063133 114.80490685 C140.26968515 122.20045424 140.28391597 129.59599163 140.2922433 136.99155885 C140.30201795 145.53177223 140.32834239 154.07172657 140.36874419 162.61184865 C140.39889187 169.21064088 140.41371088 175.8093588 140.41702431 182.40821856 C140.41937633 186.35048226 140.42835595 190.2924693 140.45348549 194.23465919 C140.476748 197.94392231 140.48100711 201.65272625 140.47072411 205.36204338 C140.46999185 207.37093914 140.48909586 209.37981148 140.50878906 211.38861084 C140.49837334 213.18680016 140.49837334 213.18680016 140.48774719 215.02131653 C140.49013555 216.06126676 140.4925239 217.10121698 140.49498463 218.17268085 C139.86963853 221.74461602 138.47712489 223.40017954 136 226 C133.60009766 227.57055664 133.60009766 227.57055664 130.9140625 228.91015625 C129.41202271 229.67271729 129.41202271 229.67271729 127.87963867 230.45068359 C126.80560791 230.98258301 125.73157715 231.51448242 124.625 232.0625 C122.34148871 233.22076711 120.05895284 234.38095906 117.77734375 235.54296875 C116.0600708 236.41381104 116.0600708 236.41381104 114.30810547 237.30224609 C109.55406281 239.74206991 104.86745433 242.29661501 100.1875 244.875 C91.82045203 249.47112452 83.41977648 254.00138945 75 258.5 C65.7250349 263.45727925 56.47234868 268.45286119 47.24633789 273.50073242 C36.90327788 279.15562297 26.53241726 284.76118499 16.12841797 290.30322266 C13.92839185 291.49646298 11.74642342 292.72330671 9.57861328 293.97412109 C8.45052246 294.61559082 7.32243164 295.25706055 6.16015625 295.91796875 C4.64047241 296.80198364 4.64047241 296.80198364 3.09008789 297.70385742 C-1.46589504 299.61487215 -5.09680098 299.6965115 -9.74047852 297.99707031 C-10.61115967 297.52881836 -11.48184082 297.06056641 -12.37890625 296.578125 C-13.37075928 296.05355713 -14.3626123 295.52898926 -15.38452148 294.98852539 C-16.43325439 294.41481201 -17.4819873 293.84109863 -18.5625 293.25 C-19.66730713 292.66017334 -20.77211426 292.07034668 -21.91040039 291.46264648 C-25.28217137 289.65714243 -28.64222439 287.83137717 -32 286 C-33.87229792 284.98549635 -35.74468765 283.97116213 -37.6171875 282.95703125 C-41.19897813 281.0115651 -44.77485495 279.05567071 -48.34765625 277.09375 C-54.50517373 273.71596146 -60.68904211 270.38784116 -66.875 267.0625 C-69.07685398 265.87766189 -71.27867695 264.69276615 -73.48046875 263.5078125 C-76.69319864 261.7790192 -79.90606668 260.05048787 -83.11962891 258.32324219 C-95.09219223 251.88457017 -107.00610829 245.36256196 -118.80444336 238.60888672 C-123.19590624 236.10483807 -127.59525906 233.66365273 -132.11328125 231.39453125 C-132.90033447 230.9965332 -133.6873877 230.59853516 -134.49829102 230.18847656 C-135.94535132 229.46486796 -137.3998541 228.75585596 -138.86303711 228.06542969 C-143.55309594 225.71832791 -145.24350465 223.91368917 -147 219 C-147.44152376 214.54614361 -147.40956456 210.11103885 -147.38818359 205.63842773 C-147.39225225 204.27621033 -147.39759578 202.91399622 -147.40411377 201.55178833 C-147.41775711 197.86382623 -147.41250153 194.17611671 -147.40297651 190.48815036 C-147.39536594 186.62409725 -147.40242926 182.76006534 -147.40713501 178.89601135 C-147.41258785 172.40890633 -147.40541269 165.92190389 -147.39111328 159.43481445 C-147.37478074 151.93888589 -147.38008146 144.44320205 -147.3965925 136.94727939 C-147.41021264 130.50549872 -147.41212467 124.06379165 -147.40427649 117.62200123 C-147.39960375 113.77712401 -147.39896424 109.93236178 -147.40888596 106.08749199 C-147.41756133 102.47340451 -147.4115236 98.85963225 -147.39420319 95.24557877 C-147.38835422 93.28924745 -147.39724855 91.33288943 -147.40658569 89.37657166 C-147.39812622 88.20880188 -147.38966675 87.0410321 -147.38095093 85.83787537 C-147.37981985 84.82524344 -147.37868877 83.81261152 -147.37752342 82.76929379 C-146.85609842 78.9444211 -145.3772212 76.16012229 -142.4140625 73.6640625 C-141.82367187 73.32117188 -141.23328125 72.97828125 -140.625 72.625 C-139.91730469 72.21121094 -139.20960938 71.79742187 -138.48046875 71.37109375 C-133.94084032 68.86178733 -129.38593434 66.3855195 -124.80303955 63.95596313 C-122.32180705 62.64042527 -119.84406055 61.31838241 -117.36611938 59.99665833 C-116.09460847 59.31845739 -114.82294059 58.64055069 -113.55111694 57.9629364 C-107.56223363 54.77103886 -101.59071012 51.54749668 -95.625 48.3125 C-94.64515137 47.78132568 -93.66530273 47.25015137 -92.65576172 46.70288086 C-86.13935034 43.16733497 -79.63126883 39.61666547 -73.125 36.0625 C-61.91293057 29.93845594 -50.66384484 23.88391512 -39.41113281 17.83496094 C-35.84319169 15.91564764 -32.27684096 13.99340761 -28.7109375 12.0703125 C-27.51270306 11.42430204 -26.31446096 10.77830577 -25.11621094 10.13232422 C-22.83538905 8.90259438 -20.5547807 7.67246837 -18.27441406 6.44189453 C-17.24799805 5.88872559 -16.22158203 5.33555664 -15.1640625 4.765625 C-14.26123535 4.27868164 -13.3584082 3.79173828 -12.42822266 3.29003906 C-11.62690918 2.86432617 -10.8255957 2.43861328 -10 2 C-8.93990723 1.42922729 -8.93990723 1.42922729 -7.85839844 0.84692383 C-5.09269826 -0.41348263 -3.00630755 -0.30668881 0 0 Z M-11.3984375 30.078125 C-12.02101944 30.40058701 -12.64360138 30.72304901 -13.28504944 31.05528259 C-15.31942162 32.1120005 -17.34725321 33.18063109 -19.375 34.25 C-20.78760125 34.98784677 -22.20044507 35.72522933 -23.61352539 36.4621582 C-34.25101575 42.0233139 -44.80645345 47.73019329 -55.31787109 53.52587891 C-60.11702598 56.16353567 -64.93392892 58.76839788 -69.75 61.375 C-70.73589111 61.90915527 -71.72178223 62.44331055 -72.73754883 62.99365234 C-78.08767632 65.89035867 -83.44320958 68.77669733 -88.8046875 71.65234375 C-89.94325195 72.26352051 -91.08181641 72.87469727 -92.25488281 73.50439453 C-94.41739269 74.6646052 -96.58073253 75.82327099 -98.74511719 76.97998047 C-106.58492284 81.18661343 -114.26683434 85.58104819 -122 90 C-122 129.6 -122 169.2 -122 210 C-114.08 214.29 -106.16 218.58 -98 223 C-87.125 228.9375 -87.125 228.9375 -84.07324219 230.60400391 C-72.74225631 236.78558892 -61.37211804 242.8945106 -50 249 C-49.40906555 249.31727051 -48.8181311 249.63454102 -48.20928955 249.96142578 C-46.38049972 250.94319781 -44.55160696 251.92477772 -42.72265625 252.90625 C-42.1179248 253.23078659 -41.51319336 253.55532318 -40.89013672 253.88969421 C-37.8891527 255.49958039 -34.88697899 257.10717925 -31.88232422 258.71020508 C-26.77092205 261.4381437 -21.66636995 264.17387308 -16.59765625 266.98046875 C-15.8075415 267.41319092 -15.01742676 267.84591309 -14.20336914 268.29174805 C-12.78692858 269.0684754 -11.37546067 269.85437893 -9.97045898 270.65161133 C-6.79198699 272.4921791 -6.79198699 272.4921791 -3.24072266 272.80053711 C-0.02781361 271.65266952 2.95589432 270.10608791 5.9765625 268.53515625 C6.65488129 268.18621811 7.33320007 267.83727997 8.03207397 267.47776794 C10.23212838 266.34394782 12.42870418 265.20358158 14.625 264.0625 C16.1380071 263.27992136 17.65102797 262.49736935 19.1640625 261.71484375 C28.22984878 257.0151948 37.21820383 252.20284494 46.109375 247.1796875 C50.11686684 244.91869035 54.17659935 242.76442499 58.25 240.625 C64.67866994 237.24570265 71.06481062 233.79648297 77.4375 230.3125 C89.93115195 223.49164137 102.46710543 216.74848169 115 210 C115 170.4 115 130.8 115 90 C103.78 84.06 92.56 78.12 81 72 C75.72 69.03 70.44 66.06 65 63 C60.81822193 60.73793448 56.6330537 58.48596572 52.4375 56.25 C43.87605267 51.66666212 35.37669741 46.99214823 26.9375 42.1875 C20.09205928 38.29924735 13.24082802 34.42660963 6.3125 30.6875 C5.27887329 30.11841919 5.27887329 30.11841919 4.22436523 29.5378418 C-2.09084671 26.1690341 -5.21909985 26.85237247 -11.3984375 30.078125 Z " fill="#16ABBB" transform="translate(770,196)"/>
<path d="M0 0 C7.445625 -0.103125 14.89125 -0.20625 22.5625 -0.3125 C24.87967041 -0.35802002 27.19684082 -0.40354004 29.58422852 -0.45043945 C44.77581189 -0.62370705 58.9528909 0.6197865 71 11 C77.50927325 17.48053474 81.58460767 24.29446415 82.265625 33.6484375 C82.21348756 46.08321738 81.09219376 57.66853799 72 67 C60.04105903 76.8353907 47.89307887 79.18458588 32.8125 79.09765625 C31.97525391 79.09664917 31.13800781 79.09564209 30.27539062 79.09460449 C27.18357958 79.08941971 24.09178824 79.0754589 21 79.0625 C14.07 79.041875 7.14 79.02125 0 79 C0 52.93 0 26.86 0 0 Z " fill="#23374F" transform="translate(885,536)"/>
<path d="M0 0 C6.93 0 13.86 0 21 0 C21.68707031 2.27777344 22.37414062 4.55554688 23.08203125 6.90234375 C23.75693486 9.13656784 24.4322799 11.37065806 25.10766602 13.60473633 C25.57264476 15.14365976 26.03717287 16.68271943 26.5012207 18.22192383 C28.90157545 26.18262672 31.31753462 34.12864065 34 42 C35.31728949 46.15986154 36.26497288 49.62794753 36 54 C36.66 54 37.32 54 38 54 C38.06316406 53.43796875 38.12632812 52.8759375 38.19140625 52.296875 C39.29988941 44.68918005 41.72488142 37.76075875 44.3215332 30.56420898 C46.52763559 24.43026643 48.43000868 18.29910631 50.15625 12.01171875 C51.29320312 7.95342775 52.62632773 3.98364958 54 0 C59.94 0 65.88 0 72 0 C73.70435057 5.10739567 75.40407846 10.21621569 77.0925293 15.32888794 C78.12220962 18.44511996 79.15533273 21.56020778 80.18847656 24.67529297 C80.7305612 26.31165797 81.27157285 27.94837881 81.81152344 29.58544922 C82.60064301 31.9771989 83.39370293 34.36761177 84.1875 36.7578125 C84.42509033 37.48090607 84.66268066 38.20399963 84.9074707 38.94900513 C86.39398324 43.40951764 88.09310167 47.70174429 90 52 C94.20774895 39.15254605 98.13849717 26.2605346 101.68969727 13.21508789 C101.96354248 12.21469482 102.2373877 11.21430176 102.51953125 10.18359375 C102.75776611 9.30243896 102.99600098 8.42128418 103.24145508 7.51342773 C104.01229196 4.95927076 105.00915171 2.47712072 106 0 C112.6 0 119.2 0 126 0 C124.05510709 7.8939771 121.46492735 15.41241765 118.60131836 23.0090332 C115.84561794 30.32326432 113.39108606 37.69224328 111.109375 45.16796875 C108.94157791 52.25666523 106.60898464 59.28549201 104.25 66.3125 C103.83878906 67.54162109 103.42757812 68.77074219 103.00390625 70.03710938 C102.00399828 73.02520646 101.00220066 76.0126711 100 79 C93.4 79 86.8 79 80 79 C76.63076923 70.01538462 76.63076923 70.01538462 75.71875 66.78125 C75.51636719 66.07613281 75.31398438 65.37101563 75.10546875 64.64453125 C74.70182292 63.21484375 74.29817708 61.78515625 73.89453125 60.35546875 C72.68653887 56.14673098 71.31948089 52.05610087 69.74951172 47.96875 C68.52619 44.75543848 67.41464312 41.50648331 66.3125 38.25 C65.97508789 37.28126953 65.97508789 37.28126953 65.63085938 36.29296875 C64.50675446 32.96507151 64 30.56340893 64 27 C63.34 27 62.68 27 62 27 C61.88785156 27.97066406 61.77570312 28.94132813 61.66015625 29.94140625 C61.01650617 34.41113625 59.76315315 38.628477 58.4375 42.9375 C58.05247314 44.2064209 58.05247314 44.2064209 57.65966797 45.50097656 C54.31603911 56.40179844 50.65544173 67.20067469 47 78 C40.07 78 33.14 78 26 78 C25.52691406 76.5459375 25.05382812 75.091875 24.56640625 73.59375 C21.10548327 63.04072812 17.52716213 52.56271582 13.5625 42.1875 C10.15626397 33.25116593 6.97483001 24.25602198 3.9375 15.1875 C3.54312744 14.01791748 3.14875488 12.84833496 2.74243164 11.64331055 C2.38270264 10.55832275 2.02297363 9.47333496 1.65234375 8.35546875 C1.33257568 7.39278076 1.01280762 6.43009277 0.68334961 5.43823242 C0 3 0 3 0 0 Z " fill="#20344C" transform="translate(566,536)"/>
<path d="M0 0 C7.3425 -0.061875 14.685 -0.12375 22.25 -0.1875 C25.68841309 -0.22846802 25.68841309 -0.22846802 29.19628906 -0.27026367 C55.78002402 -0.45532705 55.78002402 -0.45532705 66.6875 9.4375 C72.37164106 15.7361428 73.50623078 21.38268094 73.39453125 29.69921875 C72.55821984 36.69608155 69.68257197 42.64077376 64.375 47.30859375 C61.9700586 49.00640039 59.53768762 50.51379722 57 52 C57.4031543 52.53890869 57.80630859 53.07781738 58.22167969 53.63305664 C60.0685057 56.10654116 61.90928066 58.58446812 63.75 61.0625 C64.38421875 61.91005859 65.0184375 62.75761719 65.671875 63.63085938 C69.12008195 68.28234688 72.25867862 72.89809632 75 78 C56.48162433 79.45588627 56.48162433 79.45588627 51.36328125 76.453125 C49.55647623 74.05571785 48.27929667 71.7180419 47 69 C44.47030384 64.01385055 42.19244466 59.75434529 38 56 C32.05867876 54.14702696 26.18558298 54.77090433 20 55 C20 62.92 20 70.84 20 79 C13.4 79 6.8 79 0 79 C0 52.93 0 26.86 0 0 Z " fill="#21354D" transform="translate(794,536)"/>
<path d="M0 0 C4.09591535 0.61516153 7.23951 1.96658691 10.90234375 3.87890625 C12.59725952 4.7596582 12.59725952 4.7596582 14.32641602 5.65820312 C15.53029548 6.29261818 16.73398641 6.92739113 17.9375 7.5625 C19.17819035 8.21180583 20.41899489 8.86089348 21.65991211 9.50976562 C28.56563063 13.13179302 35.38369302 16.87041072 42.1328125 20.77734375 C47.28901337 23.74893605 52.45976175 26.69280581 57.66622925 29.57543945 C59.40273044 30.54312427 61.12839427 31.53017536 62.85375977 32.51757812 C68.94121248 35.92135394 68.94121248 35.92135394 75.6796875 37.22265625 C80.28820794 35.52563637 84.43251932 33.31502501 88.6875 30.875 C90.64112734 29.78112254 92.59559706 28.68874858 94.55078125 27.59765625 C95.58928223 27.01516113 96.6277832 26.43266602 97.69775391 25.83251953 C104.14771908 22.25323234 110.67310286 18.81277237 117.18588257 15.34954834 C122.89856342 12.30914246 128.60115 9.26628213 134.1953125 6.01171875 C134.93861816 5.58012451 135.68192383 5.14853027 136.44775391 4.70385742 C137.76663963 3.93019272 139.07944341 3.14601248 140.38427734 2.34887695 C144.46288129 -0.04923965 144.46288129 -0.04923965 147.03198242 0.1862793 C149.56959885 1.23551333 150.11551308 2.27097692 151.39453125 4.67578125 C151.79220703 5.42150391 152.18988281 6.16722656 152.59960938 6.93554688 C152.99986328 7.71994141 153.40011719 8.50433594 153.8125 9.3125 C154.23208984 10.08529297 154.65167969 10.85808594 155.08398438 11.65429688 C158.03522855 17.30882237 158.03522855 17.30882237 157.89404297 20.07885742 C156.62828297 22.79875514 155.07091851 23.43703853 152.42578125 24.8125 C151.45979004 25.32417725 150.49379883 25.83585449 149.49853516 26.36303711 C148.44714355 26.90323486 147.39575195 27.44343262 146.3125 28 C144.09737681 29.16743868 141.88253877 30.33541858 139.66796875 31.50390625 C137.98453369 32.38393311 137.98453369 32.38393311 136.26708984 33.28173828 C131.52190797 35.77737346 126.82386688 38.35605865 122.125 40.9375 C113.80524048 45.48346609 105.46930781 49.99928384 97.125 54.5 C96.03719238 55.08773193 94.94938477 55.67546387 93.82861328 56.28100586 C91.79519984 57.37629861 89.75905046 58.4665329 87.71972656 59.55078125 C86.0315701 60.45032315 84.34982569 61.3621501 82.67871094 62.29296875 C78.502809 64.54807448 75.71708653 65.47192219 71 65 C68.40643404 63.89840068 66.06147185 62.76795536 63.609375 61.4140625 C62.91205261 61.04169464 62.21473022 60.66932678 61.49627686 60.28567505 C59.24087745 59.07735153 56.99551766 57.85157435 54.75 56.625 C53.19258291 55.78580765 51.63463786 54.94759439 50.07617188 54.11035156 C41.86109655 49.68694904 33.66773162 45.21987611 25.53588867 40.64501953 C17.61835809 36.1930326 9.60006754 31.92573563 1.58984375 27.64355469 C0.51992188 27.07024414 -0.55 26.49693359 -1.65234375 25.90625 C-3.09081665 25.13764648 -3.09081665 25.13764648 -4.55834961 24.35351562 C-7 23 -7 23 -10 21 C-8.66590983 16.5150436 -6.86281314 12.80743125 -4.4375 8.8125 C-1.86936682 4.56826372 -1.86936682 4.56826372 0 0 Z " fill="#1D3149" transform="translate(692,334)"/>
<path d="M0 0 C6.93 0 13.86 0 21 0 C31.18572944 21.76820832 41.19085493 43.62189813 51 65.5625 C51.51006592 66.69719727 52.02013184 67.83189453 52.5456543 69.00097656 C53.00496338 70.03319336 53.46427246 71.06541016 53.9375 72.12890625 C54.33839844 73.02681885 54.73929688 73.92473145 55.15234375 74.84985352 C56 77 56 77 56 79 C49.07 79 42.14 79 35 79 C34.01 76.73125 33.02 74.4625 32 72.125 C31.68675781 71.41230957 31.37351562 70.69961914 31.05078125 69.96533203 C29 65.22222222 29 65.22222222 29 63 C16.46 63.33 3.92 63.66 -9 64 C-10.98 68.95 -12.96 73.9 -15 79 C-21.93 79 -28.86 79 -36 79 C-34.69144925 75.07434774 -33.61072749 72.01105049 -31.75 68.4609375 C-28.59859126 62.2848214 -25.80878904 55.96259324 -23 49.625 C-18.37336533 39.23241637 -13.67018801 28.87840942 -8.875 18.5625 C-8.33101562 17.39090332 -7.78703125 16.21930664 -7.2265625 15.01220703 C-4.87849864 9.97142979 -2.48759951 4.97519903 0 0 Z " fill="#22364E" transform="translate(725,536)"/>
<path d="M0 0 C6.95459224 4.79264197 12.49426588 10.4789749 14.75 18.75 C14.8325 19.8225 14.915 20.895 15 22 C15.07476563 22.8146875 15.14953125 23.629375 15.2265625 24.46875 C15.66607174 32.70376521 13.65463055 38.7700285 8.23828125 45.0390625 C0.33404576 52.57454055 -8.09522086 54.61855024 -18.7331543 54.54760742 C-25.05092992 54.28615792 -29.76922488 52.60670381 -35 49 C-35.9075 48.46375 -36.815 47.9275 -37.75 47.375 C-44.56299262 40.18350779 -46.87667085 32.92588591 -46.71240234 23.21484375 C-46.21556849 14.92311468 -42.66514644 9.31534278 -36.75 3.625 C-26.00840557 -4.66675711 -12.32531124 -5.20256147 0 0 Z " fill="#F8F8F9" transform="translate(940,652)"/>
<path d="M0 0 C5.64273079 4.81696531 10.22610799 9.58279407 10.93359375 17.1640625 C11.38349947 34.02101403 11.38349947 34.02101403 5.5625 41.1875 C3.11111989 43.67692814 0.59772718 45.46843328 -2.4375 47.1875 C-3.15550781 47.6 -3.87351562 48.0125 -4.61328125 48.4375 C-13.01941743 52.50635247 -23.07188514 52.88981951 -31.921875 50.08203125 C-39.72943834 46.45986567 -44.2425125 42.21164375 -48.3125 34.75 C-50.68568493 27.48833833 -51.06845346 16.65885654 -47.875 9.625 C-43.07449065 1.95775539 -36.77218493 -2.83292893 -28 -5 C-17.96389524 -6.94730391 -9.01437029 -4.75303161 0 0 Z " fill="#F8F8F9" transform="translate(818.4375,654.8125)"/>
<path d="M0 0 C5.98521458 4.30350507 11.70422406 9.86433682 13.3125 17.3125 C14.27651212 26.19212277 13.87984714 33.13031461 8.3125 40.3125 C1.84233211 48.0067537 -6.05932661 51.64727824 -15.91796875 52.63671875 C-24.64077775 53.06477372 -30.70906951 51.65094277 -37.6875 46.3125 C-42.95546159 41.44084378 -47.22047025 36.09922767 -48.12109375 28.796875 C-48.13063022 19.68001166 -47.74083265 12.33548766 -41.875 5.06640625 C-30.97499352 -5.85363701 -13.12234179 -8.256507 0 0 Z " fill="#F8F8F8" transform="translate(698.6875,653.6875)"/>
<path d="M0 0 C5.28 -0.0825 10.56 -0.165 16 -0.25 C18.475 -0.30462402 18.475 -0.30462402 21 -0.36035156 C36.28370677 -0.55875838 36.28370677 -0.55875838 42.53491211 5.48364258 C45.59125368 8.92408834 46.89033859 11.60181706 47.25 16.1875 C46.87377278 21.92496515 45.68646584 26.26915348 41.625 30.4375 C38.9949367 32.00301387 37.02286486 32.65452973 34 33 C37.1156877 38.96044604 41.0543317 44.13274575 45.171875 49.42578125 C47 52 47 52 47 54 C43.7 54 40.4 54 37 54 C36.484375 53.05125 35.96875 52.1025 35.4375 51.125 C33.05222209 46.91416643 30.23882162 43.04401369 27.390625 39.13671875 C26 37 26 37 26 35 C19.73 35 13.46 35 7 35 C7 41.27 7 47.54 7 54 C4.69 54 2.38 54 0 54 C0 36.18 0 18.36 0 0 Z " fill="#22364E" transform="translate(595,651)"/>
<path d="M0 0 C3.75375 -0.0825 7.5075 -0.165 11.375 -0.25 C12.53692871 -0.28641602 13.69885742 -0.32283203 14.89599609 -0.36035156 C22.57551231 -0.44114742 30.0214044 0.41436445 35.94287109 5.75097656 C41.58538964 11.86237796 42.41308774 17.55943472 42.23828125 25.7109375 C41.73532242 32.65341836 40.32464967 37.15970869 35.125 41.9375 C30.28914779 45.94841271 26.09205367 47.25706457 19.82421875 47.1953125 C18.25933716 47.18781982 18.25933716 47.18781982 16.6628418 47.18017578 C15.350979 47.16196777 14.03911621 47.14375977 12.6875 47.125 C8.500625 47.08375 4.31375 47.0425 0 47 C0 31.49 0 15.98 0 0 Z " fill="#FBFBFB" transform="translate(905,552)"/>
<path d="M0 0 C4.74375 -0.0825 9.4875 -0.165 14.375 -0.25 C15.8501709 -0.28641602 17.3253418 -0.32283203 18.84521484 -0.36035156 C28.18480744 -0.43854937 35.73344896 0.35565432 43 6.5625 C47.31994159 11.82742881 47.42751358 15.16168533 47.31640625 21.828125 C46.78647959 27.14047616 44.43784252 29.60209755 40.75 33.1875 C33.44659095 38.00111051 27.01525758 38.40541013 18.5 38.1875 C17.48679687 38.17396484 16.47359375 38.16042969 15.4296875 38.14648438 C12.95289167 38.11143538 10.47637309 38.05763972 8 38 C8 43.61 8 49.22 8 55 C5.36 55 2.72 55 0 55 C0 36.85 0 18.7 0 0 Z " fill="#2C3E55" transform="translate(536,650)"/>
<path d="M0 0 C6.95459224 4.79264197 12.49426588 10.4789749 14.75 18.75 C14.8325 19.8225 14.915 20.895 15 22 C15.07476563 22.8146875 15.14953125 23.629375 15.2265625 24.46875 C15.66607174 32.70376521 13.65463055 38.7700285 8.23828125 45.0390625 C0.33404576 52.57454055 -8.09522086 54.61855024 -18.7331543 54.54760742 C-25.05092992 54.28615792 -29.76922488 52.60670381 -35 49 C-35.9075 48.46375 -36.815 47.9275 -37.75 47.375 C-44.56299262 40.18350779 -46.87667085 32.92588591 -46.71240234 23.21484375 C-46.21556849 14.92311468 -42.66514644 9.31534278 -36.75 3.625 C-26.00840557 -4.66675711 -12.32531124 -5.20256147 0 0 Z M-34.5 11.5625 C-34.995 12.366875 -35.49 13.17125 -36 14 C-36.35191406 14.56074219 -36.70382812 15.12148438 -37.06640625 15.69921875 C-39.3787595 21.39786337 -39.12747259 29.79662294 -37.08984375 35.5859375 C-34.03941358 40.70595212 -29.71449481 45.0951684 -24 47 C-11.34799464 47.89734586 -11.34799464 47.89734586 0 43 C5.22289186 37.77710814 7.17231506 32.2897735 7.5 25.0625 C7.30887429 17.79062194 4.72837145 13.6565722 -0.375 8.6875 C-11.61303201 1.46305085 -24.80174869 1.62179241 -34.5 11.5625 Z " fill="#25384F" transform="translate(940,652)"/>
<path d="M0 0 C5.98521458 4.30350507 11.70422406 9.86433682 13.3125 17.3125 C14.27651212 26.19212277 13.87984714 33.13031461 8.3125 40.3125 C1.84233211 48.0067537 -6.05932661 51.64727824 -15.91796875 52.63671875 C-24.64077775 53.06477372 -30.70906951 51.65094277 -37.6875 46.3125 C-42.95546159 41.44084378 -47.22047025 36.09922767 -48.12109375 28.796875 C-48.13063022 19.68001166 -47.74083265 12.33548766 -41.875 5.06640625 C-30.97499352 -5.85363701 -13.12234179 -8.256507 0 0 Z M-36.1875 9.875 C-40.42044464 16.75353504 -40.5894734 22.90885936 -39.2578125 30.88671875 C-37.42764715 37.54083844 -33.57684719 40.83357541 -27.91015625 44.4453125 C-21.9119116 46.78557667 -13.71201016 46.21022085 -7.62109375 44.40234375 C-1.0742131 41.3679475 1.96162337 37.82477923 4.5625 31.0625 C5.9559228 24.095386 6.59912478 18.66333211 2.6875 12.4375 C-1.17029676 7.29074526 -5.65012046 4.41322563 -11.6875 2.3125 C-21.22526637 1.0309048 -29.35977406 2.87658091 -36.1875 9.875 Z " fill="#253850" transform="translate(698.6875,653.6875)"/>
<path d="M0 0 C5.64273079 4.81696531 10.22610799 9.58279407 10.93359375 17.1640625 C11.38349947 34.02101403 11.38349947 34.02101403 5.5625 41.1875 C3.11111989 43.67692814 0.59772718 45.46843328 -2.4375 47.1875 C-3.15550781 47.6 -3.87351562 48.0125 -4.61328125 48.4375 C-13.01941743 52.50635247 -23.07188514 52.88981951 -31.921875 50.08203125 C-39.72943834 46.45986567 -44.2425125 42.21164375 -48.3125 34.75 C-50.68568493 27.48833833 -51.06845346 16.65885654 -47.875 9.625 C-43.07449065 1.95775539 -36.77218493 -2.83292893 -28 -5 C-17.96389524 -6.94730391 -9.01437029 -4.75303161 0 0 Z M-37.875 8.8125 C-41.46337869 13.29064016 -41.67870181 16.78117724 -41.75 22.4375 C-41.77900391 23.18902344 -41.80800781 23.94054687 -41.83789062 24.71484375 C-41.90918966 31.00012749 -40.06230866 34.49495434 -35.62109375 39.05078125 C-34.75677734 39.76814453 -34.75677734 39.76814453 -33.875 40.5 C-33.29621094 40.99113281 -32.71742188 41.48226562 -32.12109375 41.98828125 C-26.7207296 45.83494435 -18.76929846 44.5377697 -12.4375 44.1875 C-6.01848172 43.09583022 -2.10551897 38.22981631 1.5625 33.1875 C4.48091109 28.25905743 4.24715009 23.27092413 3.02734375 17.77734375 C1.4126929 12.49222975 -0.41910515 8.02343089 -5.33203125 5.03515625 C-16.58068625 -0.82917038 -29.04278926 -1.21268707 -37.875 8.8125 Z " fill="#25374E" transform="translate(818.4375,654.8125)"/>
<path d="M0 0 C0.70576172 -0.00064453 1.41152344 -0.00128906 2.13867188 -0.00195312 C7.46713157 0.0518697 12.14342703 0.72847915 17.25 2.1875 C17.25 4.8275 17.25 7.4675 17.25 10.1875 C16.65574219 9.9709375 16.06148437 9.754375 15.44921875 9.53125 C5.8580409 6.30933023 -3.45581618 5.67628797 -12.75 10.1875 C-17.66872961 13.12582206 -20.10518212 16.70477374 -21.75 22.1875 C-22.58753755 28.5388264 -21.55072487 34.42920967 -18.75 40.1875 C-15.56840897 44.14299155 -12.40884562 46.24174683 -7.75 48.1875 C-5.04638457 48.44805568 -2.62602695 48.56913355 0.0625 48.5 C0.76375 48.49162109 1.465 48.48324219 2.1875 48.47460938 C7.46229681 48.35273329 12.19208077 47.63261978 17.25 46.1875 C17.25 48.4975 17.25 50.8075 17.25 53.1875 C8.03460709 57.28323018 -3.07458148 57.92562784 -12.85546875 55.37890625 C-20.42631085 51.98669948 -26.72136948 45.63674613 -29.75 37.875 C-32.03874676 29.23196948 -31.76143916 21.27610214 -27.3046875 13.4453125 C-23.03178524 7.23994188 -18.0269663 2.53021562 -10.5546875 0.62890625 C-7.03029152 0.07423112 -3.5585159 -0.00334762 0 0 Z " fill="#293C53" transform="translate(868.75,649.8125)"/>
<path d="M0 0 C3.465 -0.061875 6.93 -0.12375 10.5 -0.1875 C12.11358398 -0.22846802 12.11358398 -0.22846802 13.75976562 -0.27026367 C19.90186719 -0.32295882 24.44470167 0.31704342 30 3 C32.92696096 6.21965705 33.88544956 8.1981469 34.5 12.5 C33.89050739 16.76644827 32.85746094 18.77619792 30 22 C23.78439303 25.55058194 18.08854641 25.35626849 11.0625 25.1875 C7.411875 25.125625 3.76125 25.06375 0 25 C0 16.75 0 8.5 0 0 Z " fill="#F8F8F8" transform="translate(814,551)"/>
<path d="M0 0 C16.5 0 33 0 50 0 C50 2.31 50 4.62 50 7 C43.07 7 36.14 7 29 7 C29 22.84 29 38.68 29 55 C26.36 55 23.72 55 21 55 C21 39.16 21 23.32 21 7 C14.07 7 7.14 7 0 7 C0 4.69 0 2.38 0 0 Z " fill="#2E4056" transform="translate(715,650)"/>
<path d="M0 0 C3.691875 -0.061875 7.38375 -0.12375 11.1875 -0.1875 C12.3427417 -0.21481201 13.4979834 -0.24212402 14.68823242 -0.27026367 C15.60967041 -0.27775635 16.5311084 -0.28524902 17.48046875 -0.29296875 C18.41785889 -0.3086792 19.35524902 -0.32438965 20.32104492 -0.34057617 C24.20166117 0.15276746 26.72353072 2.0335703 29.78515625 4.3515625 C32.39932509 7.89876266 31.55535309 12.83180043 31 17 C28.89431397 20.68495055 26.88181192 22.42640899 23 24 C20.43457031 24.22705078 20.43457031 24.22705078 17.578125 24.1953125 C16.65418945 24.19031738 15.73025391 24.18532227 14.77832031 24.18017578 C13.03180176 24.15286377 13.03180176 24.15286377 11.25 24.125 C7.5375 24.08375 3.825 24.0425 0 24 C0 16.08 0 8.16 0 0 Z " fill="#F9FAFA" transform="translate(544,657)"/>
<path d="M0 0 C3.650625 -0.0825 7.30125 -0.165 11.0625 -0.25 C12.19953369 -0.28641602 13.33656738 -0.32283203 14.50805664 -0.36035156 C20.91618952 -0.43020725 24.81890245 0.13372145 30 4 C32.41141309 7.61711964 32.22001961 10.9806203 31.53125 15.13671875 C30.69424443 18.0723927 29.50362003 19.28699682 27 21 C21.12190849 23.14584827 15.77357834 23.24035079 9.5625 23.125 C6.406875 23.08375 3.25125 23.0425 0 23 C0 15.41 0 7.82 0 0 Z " fill="#F5F6F7" transform="translate(602,657)"/>
<path d="M0 0 C2.31 0 4.62 0 7 0 C7 15.84 7 31.68 7 48 C16.9 48 26.8 48 37 48 C37 49.98 37 51.96 37 54 C24.79 54 12.58 54 0 54 C0 36.18 0 18.36 0 0 Z " fill="#1F344C" transform="translate(968,651)"/>
<path d="M0 0 C0.66 0 1.32 0 2 0 C3.5734726 3.64493255 5.13984244 7.29282581 6.69970703 10.94360352 C7.23129273 12.18499721 7.76480845 13.4255663 8.30029297 14.6652832 C9.06985843 16.44784809 9.8319069 18.23365229 10.59375 20.01953125 C11.05458984 21.09307861 11.51542969 22.16662598 11.99023438 23.27270508 C13 26 13 26 13 29 C5.08 29 -2.84 29 -11 29 C-10.21468959 24.28813755 -9.86932607 22.29386864 -7.75 18.4375 C-4.63544796 12.48988604 -2.31778331 6.29253512 0 0 Z " fill="#F2F3F4" transform="translate(734,555)"/>
<path d="M0 0 C1.0169313 2.65498232 1.13022151 3.69155375 0.00390625 6.359375 C-0.47175781 7.14828125 -0.94742188 7.9371875 -1.4375 8.75 C-1.91058594 9.54921875 -2.38367188 10.3484375 -2.87109375 11.171875 C-3.24363281 11.77515625 -3.61617187 12.3784375 -4 13 C-4.66 13 -5.32 13 -6 13 C-4.58707905 8.1725201 -2.57025846 4.2837641 0 0 Z " fill="#3A4A60" transform="translate(688,342)"/>
<path d="M0 0 C0.99 0 1.98 0 3 0 C3 2.31 3 4.62 3 7 C1.35 7 -0.3 7 -2 7 C-1.01 6.67 -0.02 6.34 1 6 C0.67 4.02 0.34 2.04 0 0 Z " fill="#47566D" transform="translate(883,696)"/>
</svg>
