<?xml version="1.0" encoding="UTF-8"?>
<svg version="1.1" xmlns="http://www.w3.org/2000/svg" width="1536" height="1024">
<path d="M0 0 C506.88 0 1013.76 0 1536 0 C1536 337.92 1536 675.84 1536 1024 C1029.12 1024 522.24 1024 0 1024 C0 686.08 0 348.16 0 0 Z " fill="#FBFAFA" transform="translate(0,0)"/>
<path d="M0 0 C1.95416015 0.91019945 3.8755775 1.89224199 5.76953125 2.921875 C6.89311035 3.52845947 8.01668945 4.13504395 9.17431641 4.76000977 C10.38710734 5.42322453 11.59983357 6.08655761 12.8125 6.75 C14.07438079 7.43411448 15.33659247 8.11761894 16.59912109 8.80053711 C19.80029206 10.53381797 22.99749365 12.27428486 26.19378662 14.01654053 C28.88303611 15.48080157 31.57619932 16.93779602 34.26953125 18.39453125 C38.18626469 20.51311178 42.10155836 22.63430921 46.015625 24.7578125 C52.29574876 28.16282357 58.58458555 31.5515462 64.875 34.9375 C65.95322021 35.51822266 67.03144043 36.09894531 68.14233398 36.69726562 C73.62899589 39.65140184 79.11862731 42.59981622 84.61328125 45.5390625 C96.09139687 51.68674701 107.4933266 57.93953675 118.80712891 64.38476562 C125.43049282 68.14586958 132.12042247 71.74909378 138.87548828 75.26708984 C147.7184326 79.87684789 156.4563821 84.67604864 165.20166016 89.46777344 C169.79788229 91.98442761 174.3991488 94.49182176 179 97 C184.47725262 99.98701843 189.95414611 102.97468944 195.4296875 105.96484375 C205.36161511 111.38751954 215.30091127 116.79636451 225.25 122.1875 C226.29269043 122.75267334 227.33538086 123.31784668 228.40966797 123.90014648 C229.37275879 124.42165283 230.33584961 124.94315918 231.328125 125.48046875 C232.61058105 126.17499146 232.61058105 126.17499146 233.91894531 126.88354492 C235.26929617 127.6079882 236.62937518 128.31468759 238 129 C238 204.9 238 280.8 238 359 C229.42 363.62 220.84 368.24 212 373 C203.47114756 377.84695755 203.47114756 377.84695755 194.9453125 382.69921875 C187.21023232 387.04252248 179.31050689 391.06618801 171.42089844 395.11889648 C164.73568349 398.55947527 158.16805784 402.10265364 151.67578125 405.89453125 C143.58598126 410.58079524 135.28426457 414.9067572 127.05761719 419.34619141 C122.40561235 421.8623748 117.76533928 424.39988738 113.125 426.9375 C107.31240675 430.1157108 101.49185454 433.27771996 95.65234375 436.40625 C85.14117264 442.03793338 74.66885411 447.71253428 64.3125 453.625 C55.86259447 458.44822438 47.30728005 463.01057741 38.65722656 467.46337891 C30.5589275 471.6541168 22.6187093 476.09787439 14.7109375 480.63671875 C12.95078974 481.64505737 11.18680748 482.64674191 9.41845703 483.640625 C7.8733365 484.50911189 6.33676835 485.39311388 4.81201172 486.296875 C1.50522146 488.15064559 -0.53747426 488.98986391 -4.38671875 489.07421875 C-9.27517773 487.62089311 -13.40044725 485.33960624 -17.8125 482.8125 C-19.77677987 481.71383499 -21.74164865 480.61622238 -23.70703125 479.51953125 C-24.73393066 478.94283691 -25.76083008 478.36614258 -26.81884766 477.77197266 C-32.1792471 474.78611086 -37.59142514 471.89737906 -43 469 C-51.95483238 464.18764212 -60.89178506 459.34402444 -69.8125 454.46875 C-76.53317493 450.79672906 -83.26436745 447.14450465 -90 443.5 C-100.43386959 437.85335629 -110.85240291 432.1790751 -121.26464844 426.49267578 C-124.05300277 424.9710765 -126.84271932 423.45200197 -129.6328125 421.93359375 C-138.02469811 417.36500173 -146.40813676 412.78438473 -154.75 408.125 C-163.15843276 403.43201005 -171.63650602 398.87143754 -180.11962891 394.31518555 C-188.02415005 390.06858935 -195.90945318 385.78839732 -203.78295898 381.48461914 C-211.77496945 377.11757973 -219.78273458 372.7799236 -227.79541016 368.45092773 C-228.73562012 367.94247314 -229.67583008 367.43401855 -230.64453125 366.91015625 C-231.87200073 366.24705444 -231.87200073 366.24705444 -233.12426758 365.57055664 C-237.09478531 363.40209238 -241.04524753 361.19708471 -245 359 C-245 283.1 -245 207.2 -245 129 C-234.605 123.555 -234.605 123.555 -224 118 C-217.51239727 114.40150023 -217.51239727 114.40150023 -211.03515625 110.78515625 C-204.85444923 107.34637123 -198.61334947 104.02016137 -192.375 100.6875 C-189.95307037 99.39333136 -187.53117842 98.0990923 -185.109375 96.8046875 C-184.51074142 96.48474319 -183.91210785 96.16479889 -183.29533386 95.8351593 C-166.14061984 86.66132618 -149.07317489 77.32439076 -132 68 C-117.69233799 60.18597406 -103.36993253 52.39988152 -89.03222656 44.64111328 C-84.02074242 41.92877863 -79.01041242 39.21431374 -74 36.5 C-67.977142 33.23720947 -61.95403426 29.97488482 -55.9296875 26.71484375 C-44.28964149 20.41485264 -32.65963677 14.09690802 -21.04296875 7.75390625 C-20.22489746 7.31191895 -19.40682617 6.86993164 -18.56396484 6.41455078 C-16.72517355 5.40008146 -14.90435021 4.35277994 -13.09619141 3.28466797 C-12.13245605 2.72537598 -11.1687207 2.16608398 -10.17578125 1.58984375 C-8.86927612 0.81241821 -8.86927612 0.81241821 -7.53637695 0.01928711 C-4.42426292 -1.23136994 -3.15882811 -1.05142287 0 0 Z " fill="#212C3D" transform="translate(771,221)"/>
<path d="M0 0 C1.95416015 0.91019945 3.8755775 1.89224199 5.76953125 2.921875 C6.89311035 3.52845947 8.01668945 4.13504395 9.17431641 4.76000977 C10.38710734 5.42322453 11.59983357 6.08655761 12.8125 6.75 C14.07438079 7.43411448 15.33659247 8.11761894 16.59912109 8.80053711 C19.80029206 10.53381797 22.99749365 12.27428486 26.19378662 14.01654053 C28.88303611 15.48080157 31.57619932 16.93779602 34.26953125 18.39453125 C38.18626469 20.51311178 42.10155836 22.63430921 46.015625 24.7578125 C52.29574876 28.16282357 58.58458555 31.5515462 64.875 34.9375 C65.95322021 35.51822266 67.03144043 36.09894531 68.14233398 36.69726562 C73.62899589 39.65140184 79.11862731 42.59981622 84.61328125 45.5390625 C96.09139687 51.68674701 107.4933266 57.93953675 118.80712891 64.38476562 C125.43049282 68.14586958 132.12042247 71.74909378 138.87548828 75.26708984 C147.7184326 79.87684789 156.4563821 84.67604864 165.20166016 89.46777344 C169.79788229 91.98442761 174.3991488 94.49182176 179 97 C184.47725262 99.98701843 189.95414611 102.97468944 195.4296875 105.96484375 C205.36161511 111.38751954 215.30091127 116.79636451 225.25 122.1875 C226.29269043 122.75267334 227.33538086 123.31784668 228.40966797 123.90014648 C229.37275879 124.42165283 230.33584961 124.94315918 231.328125 125.48046875 C232.61058105 126.17499146 232.61058105 126.17499146 233.91894531 126.88354492 C235.26929617 127.6079882 236.62937518 128.31468759 238 129 C238 204.9 238 280.8 238 359 C229.42 363.62 220.84 368.24 212 373 C203.47114756 377.84695755 203.47114756 377.84695755 194.9453125 382.69921875 C187.21023232 387.04252248 179.31050689 391.06618801 171.42089844 395.11889648 C164.73568349 398.55947527 158.16805784 402.10265364 151.67578125 405.89453125 C143.58598126 410.58079524 135.28426457 414.9067572 127.05761719 419.34619141 C122.40561235 421.8623748 117.76533928 424.39988738 113.125 426.9375 C107.31240675 430.1157108 101.49185454 433.27771996 95.65234375 436.40625 C85.14117264 442.03793338 74.66885411 447.71253428 64.3125 453.625 C55.86259447 458.44822438 47.30728005 463.01057741 38.65722656 467.46337891 C30.5589275 471.6541168 22.6187093 476.09787439 14.7109375 480.63671875 C12.95078974 481.64505737 11.18680748 482.64674191 9.41845703 483.640625 C7.8733365 484.50911189 6.33676835 485.39311388 4.81201172 486.296875 C1.50522146 488.15064559 -0.53747426 488.98986391 -4.38671875 489.07421875 C-9.27517773 487.62089311 -13.40044725 485.33960624 -17.8125 482.8125 C-19.77677987 481.71383499 -21.74164865 480.61622238 -23.70703125 479.51953125 C-24.73393066 478.94283691 -25.76083008 478.36614258 -26.81884766 477.77197266 C-32.1792471 474.78611086 -37.59142514 471.89737906 -43 469 C-51.95483238 464.18764212 -60.89178506 459.34402444 -69.8125 454.46875 C-76.53317493 450.79672906 -83.26436745 447.14450465 -90 443.5 C-100.43386959 437.85335629 -110.85240291 432.1790751 -121.26464844 426.49267578 C-124.05300277 424.9710765 -126.84271932 423.45200197 -129.6328125 421.93359375 C-138.02469811 417.36500173 -146.40813676 412.78438473 -154.75 408.125 C-163.15843276 403.43201005 -171.63650602 398.87143754 -180.11962891 394.31518555 C-188.02415005 390.06858935 -195.90945318 385.78839732 -203.78295898 381.48461914 C-211.77496945 377.11757973 -219.78273458 372.7799236 -227.79541016 368.45092773 C-228.73562012 367.94247314 -229.67583008 367.43401855 -230.64453125 366.91015625 C-231.87200073 366.24705444 -231.87200073 366.24705444 -233.12426758 365.57055664 C-237.09478531 363.40209238 -241.04524753 361.19708471 -245 359 C-245 283.1 -245 207.2 -245 129 C-234.605 123.555 -234.605 123.555 -224 118 C-217.51239727 114.40150023 -217.51239727 114.40150023 -211.03515625 110.78515625 C-204.85444923 107.34637123 -198.61334947 104.02016137 -192.375 100.6875 C-189.95307037 99.39333136 -187.53117842 98.0990923 -185.109375 96.8046875 C-184.51074142 96.48474319 -183.91210785 96.16479889 -183.29533386 95.8351593 C-166.14061984 86.66132618 -149.07317489 77.32439076 -132 68 C-117.69233799 60.18597406 -103.36993253 52.39988152 -89.03222656 44.64111328 C-84.02074242 41.92877863 -79.01041242 39.21431374 -74 36.5 C-67.977142 33.23720947 -61.95403426 29.97488482 -55.9296875 26.71484375 C-44.28964149 20.41485264 -32.65963677 14.09690802 -21.04296875 7.75390625 C-20.22489746 7.31191895 -19.40682617 6.86993164 -18.56396484 6.41455078 C-16.72517355 5.40008146 -14.90435021 4.35277994 -13.09619141 3.28466797 C-12.13245605 2.72537598 -11.1687207 2.16608398 -10.17578125 1.58984375 C-8.86927612 0.81241821 -8.86927612 0.81241821 -7.53637695 0.01928711 C-4.42426292 -1.23136994 -3.15882811 -1.05142287 0 0 Z M-13.0625 70.875 C-14.50901654 71.71335797 -15.95699393 72.54919926 -17.40625 73.3828125 C-18.16164063 73.81754883 -18.91703125 74.25228516 -19.6953125 74.70019531 C-23.43600278 76.80988123 -27.249307 78.77538959 -31.0625 80.75 C-38.17549461 84.45009502 -45.16503716 88.3326694 -52.125 92.3125 C-60.15714513 96.90075404 -68.27193769 101.27350443 -76.5 105.5 C-84.45445359 109.58752708 -92.30296311 113.80349287 -100.0625 118.25 C-110.06802744 123.98243446 -120.21720979 129.41171083 -130.41217041 134.79650879 C-138.29474181 138.96037128 -146.16004537 143.14163105 -153.9375 147.5 C-162.22331807 152.12464264 -170.61369084 156.56018927 -179 161 C-179 214.79 -179 268.58 -179 324 C-170.75 328.29 -162.5 332.58 -154 337 C-145.0625 341.9375 -145.0625 341.9375 -140.75390625 344.35546875 C-135.03768831 347.55188449 -129.26872576 350.64965569 -123.5 353.75 C-121.84931519 354.63715698 -121.84931519 354.63715698 -120.1652832 355.54223633 C-117.90919895 356.75408241 -115.65293094 357.96558647 -113.39648438 359.17675781 C-98.96776804 366.92213257 -84.54895163 374.68451557 -70.17773438 382.53613281 C-57.12568174 389.66615867 -44.04879633 396.75063656 -30.94921875 403.79296875 C-30.36196014 404.10876892 -29.77470154 404.42456909 -29.16964722 404.74993896 C-26.32701259 406.27844628 -23.48380639 407.80587163 -20.63964844 409.33154297 C-19.61258789 409.88342285 -18.58552734 410.43530273 -17.52734375 411.00390625 C-16.56425293 411.51840332 -15.60116211 412.03290039 -14.60888672 412.56298828 C-12.37242533 413.79486286 -10.22591652 415.105626 -8.06640625 416.46484375 C-4.50868792 418.24596898 -3.70626808 418.05024255 0 417 C2.35485902 416.0063157 2.35485902 416.0063157 4.7109375 414.734375 C5.61360352 414.26338379 6.51626953 413.79239258 7.44628906 413.30712891 C8.41276367 412.79327637 9.37923828 412.27942383 10.375 411.75 C11.90205566 410.9463501 11.90205566 410.9463501 13.45996094 410.12646484 C21.42135459 405.9080779 29.25607187 401.48484092 37.07397461 397.0078125 C45.74080747 392.07588627 54.57764649 387.50320382 63.4465332 382.94750977 C69.95263996 379.59930779 76.38550157 376.17355107 82.73193359 372.53320312 C89.26842564 368.80193442 95.91925624 365.28607348 102.5625 361.75 C111.38123428 357.0548555 120.13789752 352.27070433 128.8125 347.3125 C141.7232825 339.94072829 154.88191711 333.05385054 168.18009949 326.40856934 C169.08222262 325.95770714 169.98434576 325.50684494 170.91380596 325.04232025 C171.60224999 324.69835457 172.29069403 324.35438889 173 324 C173.23360396 302.98172081 173.40994391 281.96365564 173.51812172 260.94434166 C173.5696861 251.18462098 173.63998335 241.42570686 173.75439453 231.66650391 C173.8540689 223.16028707 173.91858196 214.65465429 173.94088495 206.14786971 C173.95392303 201.6432176 173.98455512 197.1402363 174.05730057 192.63611984 C174.12523711 188.39535185 174.14610724 184.1569404 174.13107681 179.91567993 C174.1338257 178.36033943 174.15369229 176.80491935 174.19205475 175.25004959 C174.29900212 170.69134532 174.28219575 166.41957817 173 162 C170.01969227 158.96715833 166.93182543 157.50599422 163 156 C161.89237305 155.38366699 160.78474609 154.76733398 159.64355469 154.13232422 C158.66290039 153.6117041 157.68224609 153.09108398 156.671875 152.5546875 C155.55393555 151.95897949 154.43599609 151.36327148 153.28417969 150.74951172 C152.7080896 150.44398376 152.13199951 150.13845581 151.53845215 149.82366943 C148.43929769 148.17974896 145.34491912 146.52687613 142.25 144.875 C141.63002136 144.5443454 141.01004272 144.2136908 140.37127686 143.87301636 C134.8129473 140.9062178 129.27733158 137.89906271 123.75 134.875 C116.17614827 130.73231156 108.59282839 126.60781504 101 122.5 C93.32566756 118.3472814 85.65830192 114.18220792 78 110 C68.37223356 104.74290365 58.73005363 99.51278626 49.08203125 94.29296875 C45.01432445 92.0919986 40.94942777 89.88596246 36.88671875 87.67578125 C30.93156575 84.43731506 24.96747535 81.21569076 19 78 C18.00081543 77.45939941 17.00163086 76.91879883 15.97216797 76.36181641 C13.06946997 74.7947648 10.16078036 73.2394762 7.25 71.6875 C5.93672729 70.9756958 5.93672729 70.9756958 4.59692383 70.24951172 C3.78634521 69.82041504 2.9757666 69.39131836 2.140625 68.94921875 C1.08149902 68.38207153 1.08149902 68.38207153 0.00097656 67.8034668 C-5.22431341 65.70531778 -8.69473707 68.27502629 -13.0625 70.875 Z " fill="#43B9D0" transform="translate(771,221)"/>
<path d="M0 0 C1.95416015 0.91019945 3.8755775 1.89224199 5.76953125 2.921875 C6.89311035 3.52845947 8.01668945 4.13504395 9.17431641 4.76000977 C10.38710734 5.42322453 11.59983357 6.08655761 12.8125 6.75 C14.07438079 7.43411448 15.33659247 8.11761894 16.59912109 8.80053711 C19.80029206 10.53381797 22.99749365 12.27428486 26.19378662 14.01654053 C28.88303611 15.48080157 31.57619932 16.93779602 34.26953125 18.39453125 C38.18626469 20.51311178 42.10155836 22.63430921 46.015625 24.7578125 C52.29574876 28.16282357 58.58458555 31.5515462 64.875 34.9375 C65.95322021 35.51822266 67.03144043 36.09894531 68.14233398 36.69726562 C73.62899589 39.65140184 79.11862731 42.59981622 84.61328125 45.5390625 C96.09139687 51.68674701 107.4933266 57.93953675 118.80712891 64.38476562 C125.43049282 68.14586958 132.12042247 71.74909378 138.87548828 75.26708984 C147.7184326 79.87684789 156.4563821 84.67604864 165.20166016 89.46777344 C169.79788229 91.98442761 174.3991488 94.49182176 179 97 C184.47725262 99.98701843 189.95414611 102.97468944 195.4296875 105.96484375 C205.36161511 111.38751954 215.30091127 116.79636451 225.25 122.1875 C226.29269043 122.75267334 227.33538086 123.31784668 228.40966797 123.90014648 C229.37275879 124.42165283 230.33584961 124.94315918 231.328125 125.48046875 C232.61058105 126.17499146 232.61058105 126.17499146 233.91894531 126.88354492 C235.26929617 127.6079882 236.62937518 128.31468759 238 129 C238 204.9 238 280.8 238 359 C229.42 363.62 220.84 368.24 212 373 C203.47114756 377.84695755 203.47114756 377.84695755 194.9453125 382.69921875 C187.21023232 387.04252248 179.31050689 391.06618801 171.42089844 395.11889648 C164.73568349 398.55947527 158.16805784 402.10265364 151.67578125 405.89453125 C143.58598126 410.58079524 135.28426457 414.9067572 127.05761719 419.34619141 C122.40561235 421.8623748 117.76533928 424.39988738 113.125 426.9375 C107.31240675 430.1157108 101.49185454 433.27771996 95.65234375 436.40625 C85.14117264 442.03793338 74.66885411 447.71253428 64.3125 453.625 C55.86259447 458.44822438 47.30728005 463.01057741 38.65722656 467.46337891 C30.5589275 471.6541168 22.6187093 476.09787439 14.7109375 480.63671875 C12.95078974 481.64505737 11.18680748 482.64674191 9.41845703 483.640625 C7.8733365 484.50911189 6.33676835 485.39311388 4.81201172 486.296875 C1.50522146 488.15064559 -0.53747426 488.98986391 -4.38671875 489.07421875 C-9.27517773 487.62089311 -13.40044725 485.33960624 -17.8125 482.8125 C-19.77677987 481.71383499 -21.74164865 480.61622238 -23.70703125 479.51953125 C-24.73393066 478.94283691 -25.76083008 478.36614258 -26.81884766 477.77197266 C-32.1792471 474.78611086 -37.59142514 471.89737906 -43 469 C-51.95483238 464.18764212 -60.89178506 459.34402444 -69.8125 454.46875 C-76.53317493 450.79672906 -83.26436745 447.14450465 -90 443.5 C-100.43386959 437.85335629 -110.85240291 432.1790751 -121.26464844 426.49267578 C-124.05300277 424.9710765 -126.84271932 423.45200197 -129.6328125 421.93359375 C-138.02469811 417.36500173 -146.40813676 412.78438473 -154.75 408.125 C-163.15843276 403.43201005 -171.63650602 398.87143754 -180.11962891 394.31518555 C-188.02415005 390.06858935 -195.90945318 385.78839732 -203.78295898 381.48461914 C-211.77496945 377.11757973 -219.78273458 372.7799236 -227.79541016 368.45092773 C-228.73562012 367.94247314 -229.67583008 367.43401855 -230.64453125 366.91015625 C-231.87200073 366.24705444 -231.87200073 366.24705444 -233.12426758 365.57055664 C-237.09478531 363.40209238 -241.04524753 361.19708471 -245 359 C-245 283.1 -245 207.2 -245 129 C-234.605 123.555 -234.605 123.555 -224 118 C-217.51239727 114.40150023 -217.51239727 114.40150023 -211.03515625 110.78515625 C-204.85444923 107.34637123 -198.61334947 104.02016137 -192.375 100.6875 C-189.95307037 99.39333136 -187.53117842 98.0990923 -185.109375 96.8046875 C-184.51074142 96.48474319 -183.91210785 96.16479889 -183.29533386 95.8351593 C-166.14061984 86.66132618 -149.07317489 77.32439076 -132 68 C-117.69233799 60.18597406 -103.36993253 52.39988152 -89.03222656 44.64111328 C-84.02074242 41.92877863 -79.01041242 39.21431374 -74 36.5 C-67.977142 33.23720947 -61.95403426 29.97488482 -55.9296875 26.71484375 C-44.28964149 20.41485264 -32.65963677 14.09690802 -21.04296875 7.75390625 C-20.22489746 7.31191895 -19.40682617 6.86993164 -18.56396484 6.41455078 C-16.72517355 5.40008146 -14.90435021 4.35277994 -13.09619141 3.28466797 C-12.13245605 2.72537598 -11.1687207 2.16608398 -10.17578125 1.58984375 C-8.86927612 0.81241821 -8.86927612 0.81241821 -7.53637695 0.01928711 C-4.42426292 -1.23136994 -3.15882811 -1.05142287 0 0 Z M-9.76953125 27.421875 C-10.72907715 27.94644287 -11.68862305 28.47101074 -12.67724609 29.01147461 C-13.71187988 29.58518799 -14.74651367 30.15890137 -15.8125 30.75 C-16.88838379 31.33982666 -17.96426758 31.92965332 -19.07275391 32.53735352 C-21.30493637 33.76146942 -23.53571805 34.9881429 -25.76513672 36.21728516 C-30.46065792 38.80496031 -35.16777999 41.37118952 -39.875 43.9375 C-40.76002197 44.42105957 -41.64504395 44.90461914 -42.55688477 45.40283203 C-49.77113082 49.34162601 -57.00888905 53.23586666 -64.25 57.125 C-72.28276236 61.44070973 -80.28837365 65.7972404 -88.24633789 70.24926758 C-94.36131783 73.66371284 -100.52207271 76.99019721 -106.6875 80.3125 C-114.70294995 84.63286632 -122.65425879 89.04910836 -130.5625 93.5625 C-139.18778934 98.48005236 -147.92020539 103.14233699 -156.73999023 107.70043945 C-163.86531587 111.38846478 -170.89530491 115.21673194 -177.890625 119.14453125 C-182.05364089 121.4804074 -186.235672 123.78028551 -190.421875 126.07421875 C-191.74530653 126.80040729 -193.06871132 127.52664456 -194.39208984 128.25292969 C-196.37211305 129.33954328 -198.35259611 130.42526295 -200.33477783 131.50793457 C-202.19087763 132.52202825 -204.04483574 133.53994303 -205.8984375 134.55859375 C-207.51758057 135.44502563 -207.51758057 135.44502563 -209.16943359 136.34936523 C-210.10352051 136.89407471 -211.03760742 137.43878418 -212 138 C-212.70845943 138.36108762 -213.41691887 138.72217524 -214.14684677 139.0942049 C-216.52519396 141.54011296 -216.47955504 143.42821675 -216.51632524 146.75273246 C-216.50467387 147.54163833 -216.4930225 148.33054421 -216.48101807 149.14335632 C-216.48443577 149.98304783 -216.48785347 150.82273934 -216.49137473 151.68787605 C-216.49798269 154.51190582 -216.47592976 157.33499282 -216.45410156 160.15893555 C-216.45297371 162.17905657 -216.45360572 164.19917924 -216.45587158 166.21929932 C-216.4570221 171.71289089 -216.43345809 177.20613511 -216.40557575 182.69964576 C-216.38061833 188.43718197 -216.37822457 194.17472562 -216.37347412 199.91230774 C-216.36102769 210.78144523 -216.32818348 221.65042233 -216.28807616 232.51948911 C-216.24341033 244.89173114 -216.22138447 257.26398073 -216.20129442 269.63628328 C-216.15945235 295.09094454 -216.08906788 320.54546329 -216 346 C-212.55342698 347.88028453 -209.1067962 349.76046316 -205.66015625 351.640625 C-204.69936157 352.16479004 -203.73856689 352.68895508 -202.74865723 353.22900391 C-196.31343545 356.73937073 -189.87612113 360.2458727 -183.4375 363.75 C-175.47665258 368.08645388 -167.53782323 372.46203472 -159.60491943 376.8493042 C-146.52487622 384.08204173 -133.39187956 391.2104023 -120.21923828 398.2734375 C-100.793843 408.69178995 -81.38844615 419.14650439 -62.09765625 429.8125 C-61.4995665 430.14316971 -60.90147675 430.47383942 -60.28526306 430.81452942 C-59.37847557 431.31589668 -59.37847557 431.31589668 -58.45336914 431.82739258 C-57.84316925 432.16477448 -57.23296936 432.50215637 -56.60427856 432.84976196 C-55.3715655 433.53133395 -54.13887899 434.21295396 -52.90621948 434.8946228 C-42.82859645 440.46528985 -32.71109579 445.95750395 -22.56152344 451.39599609 C-21.06927246 452.19577881 -21.06927246 452.19577881 -19.546875 453.01171875 C-18.60521484 453.5123584 -17.66355469 454.01299805 -16.69335938 454.52880859 C-14.92419491 455.4951778 -13.17409666 456.49746932 -11.44726562 457.53759766 C-10.66544922 458.00601074 -9.88363281 458.47442383 -9.078125 458.95703125 C-8.4068457 459.37573486 -7.73556641 459.79443848 -7.04394531 460.22583008 C-3.57710705 461.53893855 -0.97169366 460.42361661 2.31396484 458.99121094 C3.10496582 458.57645508 3.8959668 458.16169922 4.7109375 457.734375 C5.61392578 457.26322266 6.51691406 456.79207031 7.44726562 456.30664062 C8.41341797 455.79294922 9.37957031 455.27925781 10.375 454.75 C11.39013672 454.21568359 12.40527344 453.68136719 13.45117188 453.13085938 C21.50871317 448.86100868 29.44390801 444.39086041 37.35961914 439.86499023 C45.05145132 435.48563685 52.86096694 431.36984415 60.72436523 427.30859375 C68.03721832 423.52485387 75.24394639 419.58012873 82.42578125 415.5546875 C87.51222812 412.7050315 92.6296604 409.91317931 97.75 407.125 C98.678125 406.61936523 99.60625 406.11373047 100.5625 405.59277344 C104.25939499 403.57942295 107.95702733 401.56742931 111.65478516 399.55566406 C122.25403807 393.78792868 132.83600995 387.99036984 143.39562988 382.15042114 C155.21875869 375.61252122 167.08082492 369.15301439 178.98828125 362.76953125 C185.48152577 359.28614328 191.95968782 355.77503975 198.43823242 352.2644043 C200.10781132 351.3598563 200.10781132 351.3598563 201.81111908 350.43703461 C204.54080048 348.95812348 207.27042588 347.47910911 210 346 C210.23351999 319.37516483 210.40990363 292.75048293 210.51812172 266.12483025 C210.56970329 253.76223409 210.64003554 241.4002739 210.75439453 229.03808594 C210.85401364 218.26414863 210.91856938 207.49067183 210.94088495 196.71628678 C210.95393161 191.01012619 210.98462518 185.30528311 211.05730057 179.59954453 C211.12514616 174.22951941 211.14612343 168.86135499 211.13107681 163.490942 C211.13382952 161.51958923 211.15374495 159.54817472 211.19205475 157.57719231 C211.81647223 147.36811181 211.81647223 147.36811181 207.81120682 138.53401184 C205.23023062 136.95477919 202.86788206 135.93533691 200 135 C198.39801758 134.10522949 198.39801758 134.10522949 196.76367188 133.19238281 C195.84134766 132.70092773 194.91902344 132.20947266 193.96875 131.703125 C192.92058105 131.14230225 191.87241211 130.58147949 190.79248047 130.00366211 C189.70596191 129.42495361 188.61944336 128.84624512 187.5 128.25 C179.92924289 124.19663004 172.36935813 120.13064738 164.875 115.9375 C158.02991346 112.11063228 151.1484368 108.35483185 144.25 104.625 C142.71678101 103.79597168 142.71678101 103.79597168 141.15258789 102.95019531 C140.13156982 102.3981543 139.11055176 101.84611328 138.05859375 101.27734375 C126.37606518 94.96081086 114.71225829 88.61014611 103.08984375 82.18359375 C102.49283661 81.85348801 101.89582947 81.52338226 101.2807312 81.18327332 C100.05576482 80.50590181 98.83079942 79.82852854 97.60583496 79.15115356 C86.54699726 73.03635027 75.45620081 66.98705125 64.32177734 61.01049805 C56.60030651 56.86566743 48.8999652 52.68383038 41.20996094 48.48095703 C33.27754797 44.14694608 25.33077905 39.83971765 17.38037109 35.53881836 C16.44660645 35.03358643 15.5128418 34.52835449 14.55078125 34.0078125 C13.64021973 33.51700195 12.7296582 33.02619141 11.79150391 32.52050781 C9.83782803 31.45635762 7.89282333 30.37620349 5.95458984 29.28417969 C4.97312988 28.73407227 3.99166992 28.18396484 2.98046875 27.6171875 C2.09641357 27.11558105 1.2123584 26.61397461 0.30151367 26.09716797 C-3.83292041 24.12621785 -5.99830957 25.34371624 -9.76953125 27.421875 Z " fill="#232E40" transform="translate(771,221)"/>
<path d="M0 0 C10.15787682 4.92293006 20.05846419 10.26277258 29.953125 15.69140625 C36.28332912 19.16264113 42.64015145 22.58346302 49 26 C57.09577251 30.35243129 65.18138768 34.72242145 73.25 39.125 C74.12970459 39.60283936 75.00940918 40.08067871 75.91577148 40.57299805 C80.66290502 43.15604206 85.383749 45.77823149 90.08203125 48.44921875 C91.08266602 49.0117334 92.08330078 49.57424805 93.11425781 50.15380859 C95.03565232 51.23479189 96.95075699 52.32705613 98.85839844 53.43212891 C99.72110352 53.91472168 100.58380859 54.39731445 101.47265625 54.89453125 C102.22812744 55.32612549 102.98359863 55.75771973 103.76196289 56.20239258 C107.45552543 57.5187304 110.01354036 56.43469795 113.49755859 54.89941406 C114.80974365 54.21443848 114.80974365 54.21443848 116.1484375 53.515625 C117.14149902 52.99943604 118.13456055 52.48324707 119.15771484 51.95141602 C120.21941895 51.38994873 121.28112305 50.82848145 122.375 50.25 C124.04296631 49.37589478 124.04296631 49.37589478 125.74462891 48.48413086 C133.98253003 44.1385241 142.09209474 39.5916486 150.17114258 34.95922852 C158.83987206 30.01893689 167.68481597 25.44843497 176.55908203 20.89233398 C183.4261207 17.35922018 190.17287212 13.71165793 196.84375 9.8203125 C200.61155473 7.6472964 204.41979502 5.5605303 208.25 3.5 C208.89549805 3.1488916 209.54099609 2.7977832 210.20605469 2.43603516 C214.76332187 0 214.76332187 0 217 0 C219.42623977 4.66041488 221.84717591 9.32353028 224.26318359 13.98925781 C225.08626511 15.57693105 225.91080488 17.16384917 226.73681641 18.75 C227.92211639 21.02668664 229.1021891 23.30601486 230.28125 25.5859375 C230.83903137 26.65320572 230.83903137 26.65320572 231.40808105 27.74203491 C234 32.77225659 234 32.77225659 234 35 C233.35788574 35.3309668 232.71577148 35.66193359 232.05419922 36.00292969 C214.71879646 44.94924125 197.52411186 54.11687965 180.49291992 63.62963867 C171.52862675 68.63620933 162.49390286 73.50523373 153.43777466 78.34310913 C145.21147314 82.73782663 136.99879196 87.15602494 128.8125 91.625 C127.9472168 92.09728027 127.08193359 92.56956055 126.19042969 93.05615234 C125.3709082 93.5042627 124.55138672 93.95237305 123.70703125 94.4140625 C122.92408691 94.83977539 122.14114258 95.26548828 121.33447266 95.70410156 C119.73209714 96.59360263 118.14366017 97.50854311 116.56787109 98.44433594 C115.78621582 98.90356445 115.00456055 99.36279297 114.19921875 99.8359375 C113.51045654 100.25149902 112.82169434 100.66706055 112.11206055 101.09521484 C109.51604429 102.20732168 107.80382421 102.30171173 105 102 C102.79370117 101.10473633 102.79370117 101.10473633 100.54296875 99.83203125 C99.69025391 99.35765625 98.83753906 98.88328125 97.95898438 98.39453125 C97.04439453 97.87246094 96.12980469 97.35039063 95.1875 96.8125 C93.20217568 95.70379517 91.2164858 94.59574472 89.23046875 93.48828125 C87.69011963 92.62323975 87.69011963 92.62323975 86.11865234 91.74072266 C81.10648317 88.94310513 76.05239684 86.22406921 71 83.5 C68.98933082 82.41192483 66.9789139 81.32338337 64.96875 80.234375 C63.98003906 79.69876953 62.99132812 79.16316406 61.97265625 78.61132812 C37.74529346 65.47888771 37.74529346 65.47888771 26.53515625 59.11621094 C16.22720052 53.27155361 5.76020719 47.71434161 -4.6875 42.125 C-5.98634925 41.42972696 -7.28517749 40.73441468 -8.58398438 40.0390625 C-11.72241514 38.35892425 -14.86112679 36.67931156 -18 35 C-17.4082548 31.04762223 -16.1878473 28.1813331 -14.19921875 24.7265625 C-13.63396484 23.7365625 -13.06871094 22.7465625 -12.48632812 21.7265625 C-11.89271484 20.70304687 -11.29910156 19.67953125 -10.6875 18.625 C-10.10548828 17.60921875 -9.52347656 16.5934375 -8.92382812 15.546875 C-7.28835851 12.69452709 -5.64463549 9.84706889 -4 7 C-2.66381665 4.66827788 -1.33157153 2.33435996 0 0 Z " fill="#43B9CF" transform="translate(660,432)"/>
</svg>
